<?xml version="1.0" standalone="no"?>
<!DOCTYPE svg PUBLIC "-//W3C//DTD SVG 20010904//EN"
 "http://www.w3.org/TR/2001/REC-SVG-20010904/DTD/svg10.dtd">
<svg version="1.0" xmlns="http://www.w3.org/2000/svg"
 width="984.000000pt" height="984.000000pt" viewBox="0 0 984.000000 984.000000"
 preserveAspectRatio="xMidYMid meet">
<metadata>
Created by potrace 1.14, written by Peter Selinger 2001-2017
</metadata>
<g transform="translate(0.000000,984.000000) scale(0.100000,-0.100000)"
fill="#000000" stroke="none">
<path d="M5284 8322 c5 -8 -6 -12 -36 -13 -24 0 -50 -2 -58 -4 -14 -4 -39 -9
-100 -19 -14 -3 -25 -5 -25 -6 0 -2 -32 -10 -55 -14 -26 -4 -104 -28 -115 -34
-5 -4 -15 -7 -22 -8 -7 -1 -26 -9 -43 -17 -17 -9 -28 -12 -26 -8 3 4 -24 -7
-59 -23 -35 -17 -61 -34 -59 -38 3 -4 -1 -5 -9 -2 -8 3 -22 -2 -31 -11 -12
-12 -16 -13 -16 -3 0 9 -3 9 -8 2 -8 -13 -86 -63 -104 -66 -7 -2 -21 -11 -32
-20 -11 -10 -24 -18 -29 -18 -4 0 -15 -6 -22 -12 -31 -28 -44 -38 -51 -38 -4
0 -26 -16 -50 -35 -23 -19 -46 -35 -50 -35 -3 0 -17 -11 -30 -25 -13 -14 -27
-25 -31 -25 -5 0 -16 -9 -26 -20 -9 -11 -24 -20 -32 -20 -9 0 -13 -4 -10 -10
3 -5 2 -10 -2 -10 -5 0 -42 -31 -81 -69 -40 -38 -72 -67 -72 -64 0 2 -18 -16
-39 -41 -21 -25 -42 -42 -45 -39 -3 4 -6 2 -6 -4 0 -6 -18 -29 -40 -52 -22
-22 -38 -41 -36 -41 3 0 -15 -21 -40 -47 -24 -27 -42 -54 -39 -60 2 -7 1 -12
-3 -12 -21 3 -31 -4 -42 -31 -7 -16 -16 -30 -21 -30 -5 0 -16 -14 -24 -30 -9
-18 -21 -28 -27 -24 -6 4 -8 3 -5 -3 3 -5 -18 -45 -48 -88 -30 -43 -52 -82
-49 -86 2 -4 -3 -9 -11 -13 -8 -3 -15 -12 -15 -21 0 -8 -4 -15 -10 -15 -5 0
-10 -7 -10 -15 0 -8 -5 -15 -12 -15 -6 0 -8 -3 -5 -7 4 -3 3 -11 -3 -18 -8
-10 -82 -153 -85 -165 -4 -16 -31 -66 -38 -71 -5 -3 -9 -9 -9 -12 0 -19 -12
-47 -19 -47 -5 0 -8 -3 -7 -7 1 -5 -4 -26 -11 -48 -17 -55 -18 -59 -19 -69 0
-5 -5 -12 -11 -15 -6 -4 -12 -19 -13 -34 -1 -15 -6 -27 -10 -27 -4 0 -8 -9 -8
-21 0 -11 -4 -18 -9 -15 -5 4 -7 -3 -4 -14 3 -11 1 -20 -4 -20 -6 0 -9 -12 -7
-26 1 -15 -3 -28 -12 -31 -8 -3 -12 -9 -9 -13 3 -4 -2 -28 -9 -54 -8 -25 -12
-46 -9 -46 3 0 1 -6 -5 -13 -11 -13 -42 -115 -46 -151 -3 -26 -20 -31 -36 -11
-7 8 -19 15 -26 15 -8 0 -14 5 -14 10 0 6 -7 10 -16 10 -8 0 -12 5 -9 10 3 6
0 10 -7 10 -8 0 -21 8 -30 18 -9 9 -37 34 -62 56 -25 21 -43 43 -39 49 3 6 1
7 -5 4 -5 -4 -49 30 -97 75 -48 46 -92 82 -97 80 -5 -1 -7 2 -3 8 3 5 1 10 -5
10 -6 0 -8 5 -5 10 3 6 -2 10 -11 10 -10 0 -15 2 -12 5 6 6 -81 95 -93 95 -5
0 -9 4 -9 9 0 5 -23 32 -50 60 -28 28 -50 56 -50 63 0 6 -3 9 -6 5 -6 -5 -34
16 -34 26 0 2 -31 36 -70 76 -38 39 -70 73 -70 76 0 2 -21 26 -47 54 -27 28
-58 63 -70 78 -12 15 -37 45 -57 66 -19 21 -35 41 -35 45 0 3 -4 8 -9 10 -10
3 -143 -97 -181 -137 -14 -15 -27 -25 -30 -24 -3 1 -16 -7 -29 -17 -12 -11
-24 -20 -27 -20 -3 0 -13 -8 -23 -17 -10 -10 -29 -25 -42 -33 -26 -17 -63 -47
-91 -72 -10 -10 -24 -18 -29 -18 -5 0 -10 -4 -10 -8 0 -4 -18 -19 -39 -32 -21
-14 -37 -28 -34 -32 2 -5 -3 -8 -11 -8 -9 0 -16 -4 -16 -10 0 -5 -5 -10 -11
-10 -6 0 -16 -6 -23 -12 -11 -12 -26 -23 -98 -79 -17 -13 -18 -17 -7 -30 8 -8
27 -32 43 -54 16 -22 36 -47 43 -55 18 -20 51 -59 93 -110 19 -23 52 -60 72
-81 21 -22 34 -39 31 -39 -3 0 4 -8 15 -19 12 -10 22 -24 22 -30 0 -7 4 -10 9
-7 5 4 11 2 13 -3 4 -11 168 -190 246 -268 28 -28 52 -57 52 -63 0 -5 4 -9 8
-7 11 3 142 -129 142 -143 0 -5 4 -9 8 -7 11 3 82 -60 82 -73 0 -5 7 -10 15
-10 8 0 15 -4 15 -10 0 -5 16 -20 36 -34 23 -15 31 -26 22 -29 -7 -3 -3 -6 10
-6 13 -1 20 -5 17 -11 -3 -5 -1 -10 5 -10 6 0 22 -10 35 -22 13 -13 31 -29 40
-36 8 -7 13 -17 10 -22 -3 -6 1 -7 9 -4 9 3 16 1 16 -5 0 -6 5 -11 11 -11 16
0 39 -26 31 -35 -4 -5 -2 -5 4 -2 7 4 29 -9 50 -28 22 -19 42 -35 47 -35 4 0
16 -8 26 -17 37 -34 50 -43 61 -43 6 0 8 -4 5 -10 -3 -5 3 -10 14 -10 12 0 21
-4 21 -9 0 -5 8 -11 18 -14 20 -7 75 -39 82 -49 8 -10 83 -42 93 -40 12 3 8
-43 -5 -57 -10 -11 -10 -13 0 -7 7 5 12 1 12 -9 0 -9 -5 -13 -11 -9 -8 4 -8 0
0 -15 7 -12 9 -27 5 -33 -7 -12 -11 -52 -17 -199 -3 -48 -7 -91 -11 -97 -3 -6
-2 -13 4 -17 6 -4 7 -11 3 -18 -9 -16 -10 -337 0 -337 5 0 5 -6 0 -12 -10 -17
-10 -38 -1 -65 5 -14 3 -23 -3 -23 -6 0 -7 -5 -4 -10 4 -6 9 -47 11 -92 3 -46
9 -87 14 -93 5 -6 5 -17 0 -25 -5 -8 -7 -17 -5 -20 4 -6 16 -82 20 -130 1 -14
5 -38 9 -55 3 -16 9 -43 11 -60 7 -47 23 -115 41 -180 9 -33 17 -67 18 -75 0
-8 4 -17 8 -20 4 -3 8 -17 10 -30 2 -14 9 -35 16 -47 7 -13 10 -23 6 -23 -3 0
-1 -7 6 -15 7 -8 9 -15 6 -15 -4 0 -1 -12 8 -27 8 -16 33 -67 56 -116 23 -48
61 -117 86 -152 24 -36 44 -67 44 -69 0 -13 137 -156 150 -156 5 0 12 -9 15
-20 4 -11 10 -18 15 -15 5 3 16 -5 25 -17 8 -13 16 -21 18 -19 1 2 27 -12 57
-31 104 -67 250 -122 338 -127 8 -1 10 -6 6 -13 -5 -10 -4 -10 5 -2 8 7 25 9
44 5 59 -13 268 -3 285 13 2 3 14 1 25 -5 14 -8 18 -8 13 0 -4 6 0 12 8 12 9
1 24 2 34 3 9 1 22 4 28 8 6 4 22 9 36 12 15 2 36 9 47 16 12 6 21 8 21 4 0
-3 6 -1 13 5 8 6 17 8 20 4 4 -3 7 -1 7 5 0 7 3 11 8 10 14 -3 110 42 196 91
31 18 41 20 55 9 13 -10 14 -10 4 2 -10 11 -1 22 55 58 37 25 72 45 79 45 7 0
10 4 7 9 -5 8 44 33 59 29 5 -1 6 2 3 7 -3 5 13 22 34 38 22 16 40 32 40 37 0
4 4 7 10 7 10 0 42 25 89 70 65 62 139 119 146 112 5 -4 5 -2 2 4 -4 6 19 33
50 60 32 27 65 57 76 67 10 10 23 15 29 11 6 -4 9 -3 6 2 -3 5 8 21 23 36 16
15 29 25 29 23 0 -6 32 20 69 55 15 14 31 26 36 27 6 2 19 10 29 19 41 35 134
104 141 104 4 0 24 13 45 30 21 16 43 30 49 30 6 0 11 5 11 11 0 5 4 8 9 4 6
-3 14 3 20 12 6 10 11 14 11 10 0 -4 20 6 43 22 63 43 284 152 337 166 3 1 19
7 35 14 57 25 135 50 135 44 0 -3 7 0 15 7 8 7 15 9 15 5 0 -4 7 -2 15 5 12
10 15 10 15 -1 0 -10 2 -11 8 -2 11 17 76 28 67 11 -4 -7 -1 -6 7 2 17 19 26
21 123 27 86 5 165 5 205 -1 14 -2 31 -4 38 -5 8 0 10 -6 6 -13 -6 -9 -3 -9 9
0 18 15 41 7 31 -11 -5 -9 -4 -9 5 -1 13 12 71 6 71 -8 0 -5 3 -7 8 -5 4 3 18
0 32 -6 14 -5 34 -12 45 -14 11 -2 25 -9 30 -17 6 -7 15 -11 20 -9 6 2 20 -5
30 -14 11 -10 29 -20 40 -21 10 -2 25 -11 32 -20 7 -10 13 -13 13 -9 1 24 250
-197 250 -222 0 -6 5 -11 12 -11 6 0 9 -2 6 -5 -3 -3 8 -20 23 -36 16 -17 26
-36 22 -43 -3 -6 2 -4 13 5 10 9 55 36 99 59 44 24 83 48 87 54 4 6 8 7 8 2 0
-5 6 -4 13 3 10 8 17 7 26 -2 10 -9 11 -9 7 3 -6 15 7 25 103 77 36 20 46 21
60 11 14 -11 14 -11 4 3 -11 14 -6 20 40 44 28 16 54 31 57 34 3 4 31 19 63
34 31 15 57 32 57 38 0 6 5 7 10 4 6 -3 10 -1 10 4 0 6 3 10 8 9 14 -3 61 25
56 33 -3 5 1 6 9 3 8 -3 21 2 30 10 9 9 19 16 24 16 4 0 19 10 33 21 17 14 21
22 13 26 -7 2 -13 11 -13 19 0 8 -4 14 -10 14 -5 0 -10 7 -10 15 0 8 -4 15
-10 15 -5 0 -10 6 -10 14 0 8 -4 16 -8 18 -5 2 -20 20 -34 41 -27 41 -111 140
-164 194 -17 18 -29 35 -26 38 3 3 0 5 -7 5 -6 0 -31 19 -56 43 -92 88 -116
107 -127 101 -6 -4 -8 -3 -5 2 3 6 -8 19 -24 29 -16 11 -29 23 -29 28 0 4 -5
7 -12 7 -6 0 -26 11 -44 25 -18 14 -37 25 -43 25 -5 0 -14 6 -18 13 -9 14 -22
21 -125 73 -40 21 -76 42 -80 48 -4 6 -8 8 -8 4 0 -4 -24 3 -52 16 -84 36 -92
39 -102 37 -4 -1 -14 3 -22 10 -7 6 -18 8 -24 4 -5 -3 -10 -2 -10 3 0 7 -82
34 -115 38 -5 0 -17 4 -25 7 -8 3 -28 8 -45 10 -16 3 -41 8 -55 11 -98 22
-190 29 -375 28 -190 -2 -245 -4 -245 -12 0 -3 -12 -6 -27 -7 -45 -4 -108 -11
-108 -13 0 -1 -11 -3 -25 -6 -14 -2 -41 -8 -60 -13 -19 -5 -62 -17 -95 -26
-33 -8 -67 -17 -75 -20 -8 -2 -16 -4 -17 -5 -2 -2 -7 -4 -13 -5 -5 -1 -12 -4
-15 -5 -3 -1 -8 -3 -12 -4 -5 -1 -12 -4 -18 -7 -5 -4 -18 -5 -28 -4 -9 2 -15
-1 -11 -6 3 -5 -6 -9 -20 -9 -14 0 -28 -5 -31 -11 -4 -6 -13 -8 -21 -5 -8 3
-14 2 -14 -3 0 -8 -20 -17 -55 -26 -34 -8 -54 -18 -50 -24 2 -4 -2 -8 -10 -9
-8 -1 -22 -3 -30 -4 -8 -1 -15 -6 -15 -11 0 -5 -9 -7 -20 -4 -11 3 -18 1 -14
-4 3 -5 -2 -9 -10 -9 -9 0 -16 -5 -16 -11 0 -7 -10 -9 -25 -7 -21 4 -23 3 -14
-13 7 -15 6 -17 -5 -13 -13 5 -150 -61 -182 -87 -6 -5 -14 -6 -17 -2 -4 3 -7
2 -7 -3 0 -6 -18 -20 -40 -33 -22 -12 -40 -20 -40 -17 0 3 -12 -6 -26 -19 -15
-14 -33 -25 -40 -25 -8 0 -14 -4 -14 -8 0 -9 -62 -47 -72 -44 -5 1 -8 -2 -8
-6 0 -9 -77 -62 -90 -62 -4 0 -10 -7 -14 -15 -3 -8 -12 -15 -21 -15 -8 0 -15
-7 -15 -16 0 -8 -4 -13 -9 -9 -5 3 -12 1 -16 -5 -4 -6 -11 -7 -17 -4 -7 4 -8
2 -4 -4 4 -6 -6 -19 -21 -29 -51 -31 -203 -155 -203 -164 0 -5 -3 -8 -7 -8
-19 3 -34 -2 -29 -9 2 -4 -9 -17 -25 -27 -16 -11 -29 -23 -29 -27 0 -5 -7 -8
-16 -8 -8 0 -13 -4 -10 -9 3 -5 -9 -16 -27 -25 -17 -8 -28 -16 -24 -16 5 0 -6
-12 -23 -26 -17 -15 -54 -49 -83 -76 -28 -27 -57 -46 -64 -44 -7 3 -10 -1 -7
-8 3 -7 -5 -20 -18 -28 -13 -9 -36 -28 -53 -42 -16 -15 -50 -40 -75 -56 -25
-16 -50 -33 -55 -38 -24 -20 -124 -70 -129 -65 -3 4 -6 2 -6 -4 0 -10 -27 -19
-87 -30 -16 -2 -23 1 -23 12 0 8 -4 15 -9 15 -5 0 -11 8 -15 18 -3 9 -10 24
-15 32 -33 51 -88 240 -106 364 -3 21 -8 43 -12 49 -4 6 -1 7 6 2 9 -5 9 -1
-1 14 -11 18 -11 23 1 30 8 5 9 10 2 12 -6 2 -12 20 -13 39 -2 19 -7 38 -13
42 -6 5 -6 8 2 8 7 0 10 9 7 23 -3 12 -7 73 -9 135 -3 83 -1 112 8 112 9 0 9
2 -1 8 -15 10 -13 73 3 84 7 5 7 8 -1 8 -12 0 -13 124 -1 136 3 3 2 17 -4 31
-5 13 -5 22 -1 19 5 -3 8 18 9 47 0 29 1 71 3 94 4 40 5 41 39 41 20 0 42 -5
50 -11 8 -7 12 -7 9 -2 -5 7 20 11 72 11 52 0 77 -4 72 -11 -3 -5 2 -3 12 5
16 13 20 12 33 -5 11 -14 14 -15 10 -4 -5 14 4 16 64 15 38 0 71 4 73 9 3 6 5
4 5 -3 1 -8 6 -10 13 -6 7 5 40 10 73 12 119 7 130 8 143 15 7 5 12 3 12 -4 0
-8 4 -8 16 2 12 10 17 10 23 0 7 -10 9 -10 14 2 4 10 18 14 46 12 23 -1 41 1
41 6 0 4 9 6 20 4 11 -2 22 0 24 4 3 4 18 7 33 6 15 -1 34 2 41 8 6 5 12 7 12
4 0 -3 14 -2 30 3 21 6 28 5 24 -2 -4 -5 5 -2 20 7 14 10 26 15 26 12 0 -3 30
3 66 13 37 11 69 19 73 18 3 0 9 1 14 2 4 1 12 4 17 5 6 1 11 3 13 5 1 1 9 3
17 5 8 2 37 10 64 19 27 8 53 13 58 10 4 -3 8 0 8 6 0 6 6 10 13 9 6 -1 21 1
32 5 64 24 75 28 82 28 4 0 17 5 28 11 11 6 28 11 38 12 11 1 22 7 27 14 4 7
10 12 14 12 3 -1 8 0 11 0 3 1 8 2 13 3 22 4 98 31 102 37 3 4 14 9 25 11 11
1 22 5 25 8 13 13 63 30 72 24 7 -4 8 -2 4 4 -4 7 4 14 21 18 15 4 31 11 34
17 4 5 18 10 32 10 14 1 23 5 21 9 -3 4 7 10 21 14 14 3 25 11 25 16 0 5 6 8
12 6 7 -3 19 2 27 9 7 8 20 12 27 9 9 -3 11 0 7 11 -4 11 -2 14 5 9 7 -4 32 6
56 23 24 17 46 27 50 24 3 -4 6 -1 6 6 0 8 6 11 16 7 8 -3 12 -2 9 4 -3 6 1
10 10 10 8 0 18 7 21 15 4 8 9 13 14 10 4 -2 17 5 29 16 12 11 26 17 33 13 6
-4 8 -3 5 3 -6 10 14 25 36 27 4 1 11 6 15 12 10 15 85 59 95 56 5 -1 6 2 2 8
-3 5 5 14 19 20 14 5 26 15 26 21 0 6 9 9 20 6 12 -3 18 -1 14 5 -6 9 21 34
39 37 13 2 44 36 40 44 -2 4 2 7 10 7 13 0 188 167 257 246 58 65 100 122 100
133 0 6 7 11 15 11 8 0 15 3 14 8 -2 14 13 52 21 52 4 0 10 8 13 18 7 22 39
75 50 83 5 3 8 10 8 15 -1 18 11 44 20 44 6 0 8 4 5 9 -8 13 19 73 29 64 4 -5
5 0 2 10 -4 10 -1 32 7 50 7 18 12 40 10 50 -1 9 1 17 5 17 10 0 11 4 15 182
2 86 0 178 -5 205 -4 26 -10 71 -13 98 -2 28 -5 50 -6 50 -2 0 -6 18 -13 60
-3 17 -10 42 -16 58 -6 15 -7 27 -4 27 4 0 2 5 -5 12 -7 7 -12 20 -12 30 0 10
-4 18 -10 18 -5 0 -10 9 -10 20 0 12 -5 26 -10 33 -27 31 -79 121 -74 129 3 5
0 7 -7 6 -7 -2 -18 7 -23 19 -6 12 -21 28 -34 34 -15 9 -22 19 -19 31 3 10 1
15 -4 12 -5 -3 -40 27 -77 67 -37 40 -101 108 -143 151 -42 43 -74 80 -71 83
3 3 1 5 -5 5 -5 0 -32 20 -59 44 -71 65 -77 70 -107 85 -15 8 -27 18 -27 23 0
4 -7 8 -15 8 -8 0 -15 5 -15 10 0 6 -7 10 -15 10 -8 0 -15 5 -15 12 0 6 -3 8
-7 5 -3 -4 -15 0 -25 10 -10 9 -18 12 -18 7 0 -5 -4 -4 -8 2 -9 15 -152 86
-152 77 0 -5 -4 -2 -9 5 -4 7 -14 14 -22 16 -8 1 -31 10 -53 19 -21 9 -42 14
-47 11 -5 -3 -9 -1 -9 4 0 9 -36 23 -70 28 -27 3 -45 9 -50 16 -3 3 -19 8 -35
10 -17 2 -33 7 -36 11 -3 4 -26 9 -51 10 -25 1 -44 5 -41 10 2 4 -2 7 -9 8 -7
0 -22 2 -33 4 -76 14 -122 18 -212 20 -55 2 -107 6 -114 10 -8 5 -10 4 -5 -3z
m399 -982 c9 -1 17 -5 17 -9 0 -5 11 -6 25 -3 14 2 25 0 25 -5 0 -5 10 -9 21
-10 28 -2 148 -62 171 -85 10 -10 18 -16 18 -13 0 3 11 -6 26 -20 14 -14 22
-30 19 -35 -3 -5 0 -7 7 -5 17 7 91 -103 83 -122 -2 -8 0 -11 5 -8 9 6 14 -8
11 -27 0 -5 4 -8 11 -8 6 0 9 -3 5 -6 -3 -4 0 -21 7 -39 14 -32 15 -201 3
-250 -3 -11 -6 -28 -6 -39 -1 -13 -6 -16 -18 -11 -15 5 -16 4 -5 -6 18 -19 15
-42 -4 -35 -13 5 -14 4 -6 -7 9 -10 0 -25 -39 -65 -28 -29 -55 -49 -61 -46 -6
4 -8 3 -5 -3 3 -5 -10 -17 -29 -28 -19 -10 -34 -22 -34 -27 0 -5 -4 -6 -10 -3
-5 3 -10 2 -10 -3 0 -5 -16 -17 -35 -28 -19 -10 -35 -22 -35 -26 0 -5 -7 -8
-15 -8 -8 0 -15 -5 -15 -11 0 -5 -4 -8 -9 -5 -5 4 -11 2 -13 -2 -5 -12 -98
-74 -98 -66 0 4 -11 -3 -25 -16 -14 -13 -25 -19 -25 -14 0 5 -4 4 -8 -1 -6
-10 -35 -28 -120 -76 -18 -11 -39 -19 -47 -19 -8 0 -15 -4 -15 -9 0 -9 -40
-27 -49 -22 -2 2 -7 -1 -10 -6 -7 -10 -174 -83 -190 -83 -6 0 -11 -5 -11 -12
0 -6 -3 -8 -6 -5 -4 3 -15 2 -26 -4 -11 -6 -27 -12 -36 -14 -9 -2 -43 -13 -76
-25 -32 -12 -65 -19 -73 -16 -8 3 -11 1 -8 -4 3 -6 3 -10 -2 -11 -4 0 -17 -3
-28 -5 -11 -2 -31 -6 -43 -8 -13 -1 -27 -7 -30 -12 -4 -5 -18 -9 -32 -9 -14 0
-31 -4 -37 -9 -7 -4 -13 -5 -13 -1 0 4 -6 3 -12 -2 -7 -5 -25 -9 -40 -8 -15 0
-25 -2 -22 -6 2 -4 -4 -8 -13 -8 -10 0 -31 -2 -48 -6 -16 -3 -40 -7 -52 -8
-12 -2 -25 -6 -28 -9 -4 -4 -13 -4 -21 -1 -8 3 -14 0 -14 -6 0 -8 -6 -9 -19
-2 -10 6 -21 7 -25 4 -12 -12 -108 -22 -293 -29 -114 -4 -143 -3 -143 8 0 23
29 110 42 126 7 9 8 13 2 9 -7 -4 -10 2 -6 18 2 14 8 25 13 25 5 0 8 3 7 8 -3
13 13 72 20 72 4 0 8 10 8 23 1 12 9 40 19 62 10 22 19 47 20 55 1 8 11 38 22
65 12 28 25 59 29 70 4 11 8 22 9 25 2 3 6 15 10 28 4 12 11 22 16 22 5 0 8 6
6 13 -1 6 4 11 12 9 12 -3 12 0 1 12 -8 11 -9 16 -1 16 6 0 11 3 10 8 -2 15
14 52 22 52 5 0 9 3 8 8 -2 15 14 52 23 52 5 0 7 3 5 8 -2 4 4 21 14 37 11 17
24 42 30 57 6 16 16 25 22 21 5 -3 7 -1 3 5 -3 6 0 17 8 25 8 8 12 17 9 21 -4
3 -1 6 6 6 7 0 9 5 6 10 -3 6 1 13 9 16 9 3 13 10 10 15 -3 5 2 9 10 9 9 0 15
3 15 8 -4 23 -2 26 92 134 27 31 46 45 57 41 13 -4 14 -3 3 5 -10 7 -2 18 35
46 26 20 54 34 61 31 8 -2 12 -1 9 4 -6 9 52 41 73 41 6 0 11 5 11 11 0 6 7 8
16 5 10 -4 13 -2 8 6 -5 8 -2 9 9 5 10 -3 17 -2 17 4 0 6 5 7 10 4 6 -3 10 -2
10 3 0 6 7 13 16 16 10 4 13 2 9 -7 -4 -6 1 -3 9 7 9 11 16 16 16 12 0 -4 6
-4 13 1 6 4 19 8 27 10 8 1 16 7 18 13 3 7 12 5 25 -7 18 -15 19 -15 9 -1 -12
15 -9 18 30 29 55 16 50 14 70 23 9 4 22 8 30 10 7 1 18 4 23 7 6 4 22 6 37 5
14 -1 24 2 22 6 -3 4 4 9 15 9 12 1 24 2 29 4 11 3 74 14 106 20 16 2 30 5 31
7 3 2 186 1 248 -2z"/>
<path d="M5113 7125 c0 -8 4 -12 9 -9 5 3 6 10 3 15 -9 13 -12 11 -12 -6z"/>
<path d="M5469 6963 c-13 -16 -12 -17 4 -4 9 7 17 15 17 17 0 8 -8 3 -21 -13z"/>
<path d="M5106 6962 c-3 -5 1 -9 9 -9 8 0 15 4 15 9 0 4 -4 8 -9 8 -6 0 -12
-4 -15 -8z"/>
<path d="M4571 6927 c2 -1 13 -9 24 -17 19 -14 19 -14 6 3 -7 9 -18 17 -24 17
-6 0 -8 -1 -6 -3z"/>
<path d="M6076 6873 c-6 -14 -5 -15 5 -6 7 7 10 15 7 18 -3 3 -9 -2 -12 -12z"/>
<path d="M6113 6765 c0 -8 4 -12 9 -9 5 3 6 10 3 15 -9 13 -12 11 -12 -6z"/>
<path d="M4806 6642 c-3 -5 1 -9 9 -9 8 0 15 4 15 9 0 4 -4 8 -9 8 -6 0 -12
-4 -15 -8z"/>
<path d="M5833 6635 c0 -8 4 -12 9 -9 5 3 6 10 3 15 -9 13 -12 11 -12 -6z"/>
<path d="M4590 6599 c0 -5 5 -7 10 -4 6 3 10 8 10 11 0 2 -4 4 -10 4 -5 0 -10
-5 -10 -11z"/>
<path d="M4633 6555 c0 -8 4 -12 9 -9 5 3 6 10 3 15 -9 13 -12 11 -12 -6z"/>
<path d="M4515 6491 c-3 -5 -2 -12 3 -15 5 -3 9 1 9 9 0 17 -3 19 -12 6z"/>
<path d="M4555 6240 c-3 -5 -1 -10 4 -10 6 0 11 5 11 10 0 6 -2 10 -4 10 -3 0
-8 -4 -11 -10z"/>
<path d="M4319 6093 c-13 -16 -12 -17 4 -4 9 7 17 15 17 17 0 8 -8 3 -21 -13z"/>
<path d="M7116 5807 c3 -10 9 -15 12 -12 3 3 0 11 -7 18 -10 9 -11 8 -5 -6z"/>
<path d="M6759 5778 c-5 -18 -6 -38 -1 -34 7 8 12 36 6 36 -2 0 -4 -1 -5 -2z"/>
<path d="M2319 5233 c-13 -16 -12 -17 4 -4 9 7 17 15 17 17 0 8 -8 3 -21 -13z"/>
<path d="M5905 5240 c-3 -6 1 -7 9 -4 18 7 21 14 7 14 -6 0 -13 -4 -16 -10z"/>
<path d="M6240 5240 c-9 -6 -10 -10 -3 -10 6 0 15 5 18 10 8 12 4 12 -15 0z"/>
<path d="M6107 5119 c7 -7 15 -10 18 -7 3 3 -2 9 -12 12 -14 6 -15 5 -6 -5z"/>
<path d="M6110 5046 c0 -2 7 -7 16 -10 8 -3 12 -2 9 4 -6 10 -25 14 -25 6z"/>
<path d="M6025 5000 c-3 -6 1 -7 9 -4 18 7 21 14 7 14 -6 0 -13 -4 -16 -10z"/>
<path d="M2555 4921 c-3 -5 -2 -12 3 -15 5 -3 9 1 9 9 0 17 -3 19 -12 6z"/>
<path d="M2625 4919 c-3 -4 2 -6 10 -5 21 3 28 13 10 13 -9 0 -18 -4 -20 -8z"/>
<path d="M5270 4799 c0 -5 5 -7 10 -4 6 3 10 8 10 11 0 2 -4 4 -10 4 -5 0 -10
-5 -10 -11z"/>
<path d="M5513 4795 c0 -8 4 -12 9 -9 5 3 6 10 3 15 -9 13 -12 11 -12 -6z"/>
<path d="M3994 4756 c1 -8 5 -18 8 -22 4 -3 5 1 4 10 -1 8 -5 18 -8 22 -4 3
-5 -1 -4 -10z"/>
<path d="M5344 4762 c4 -3 14 -7 22 -8 9 -1 13 0 10 4 -4 3 -14 7 -22 8 -9 1
-13 0 -10 -4z"/>
<path d="M5550 4759 c0 -5 5 -7 10 -4 6 3 10 8 10 11 0 2 -4 4 -10 4 -5 0 -10
-5 -10 -11z"/>
<path d="M4086 4718 c3 -5 10 -6 15 -3 13 9 11 12 -6 12 -8 0 -12 -4 -9 -9z"/>
<path d="M4865 4720 c-3 -6 1 -7 9 -4 18 7 21 14 7 14 -6 0 -13 -4 -16 -10z"/>
<path d="M4319 4633 c-13 -16 -12 -17 4 -4 16 13 21 21 13 21 -2 0 -10 -8 -17
-17z"/>
<path d="M4866 4638 c3 -5 10 -6 15 -3 13 9 11 12 -6 12 -8 0 -12 -4 -9 -9z"/>
<path d="M4915 4609 c-4 -6 -5 -12 -2 -15 2 -3 7 2 10 11 7 17 1 20 -8 4z"/>
<path d="M2713 4585 c0 -8 4 -12 9 -9 5 3 6 10 3 15 -9 13 -12 11 -12 -6z"/>
<path d="M5100 4586 c0 -2 8 -10 18 -17 15 -13 16 -12 3 4 -13 16 -21 21 -21
13z"/>
<path d="M2827 4559 c7 -7 15 -10 18 -7 3 3 -2 9 -12 12 -14 6 -15 5 -6 -5z"/>
<path d="M5273 4465 c0 -8 4 -15 9 -15 4 0 8 4 8 9 0 6 -4 12 -8 15 -5 3 -9
-1 -9 -9z"/>
<path d="M3916 4402 c-3 -5 1 -9 9 -9 8 0 12 4 9 9 -3 4 -7 8 -9 8 -2 0 -6 -4
-9 -8z"/>
<path d="M3946 4202 c-3 -5 1 -9 9 -9 8 0 12 4 9 9 -3 4 -7 8 -9 8 -2 0 -6 -4
-9 -8z"/>
<path d="M4673 4195 c0 -8 4 -12 9 -9 5 3 6 10 3 15 -9 13 -12 11 -12 -6z"/>
<path d="M2716 4042 c-3 -5 1 -9 9 -9 8 0 12 4 9 9 -3 4 -7 8 -9 8 -2 0 -6 -4
-9 -8z"/>
<path d="M7185 3760 c-3 -6 1 -7 9 -4 18 7 21 14 7 14 -6 0 -13 -4 -16 -10z"/>
<path d="M2919 3593 c-13 -16 -12 -17 4 -4 16 13 21 21 13 21 -2 0 -10 -8 -17
-17z"/>
<path d="M6476 3598 c3 -5 10 -6 15 -3 13 9 11 12 -6 12 -8 0 -12 -4 -9 -9z"/>
<path d="M4073 3565 c0 -8 4 -12 9 -9 5 3 6 10 3 15 -9 13 -12 11 -12 -6z"/>
<path d="M7267 3479 c7 -7 15 -10 18 -7 3 3 -2 9 -12 12 -14 6 -15 5 -6 -5z"/>
<path d="M7967 3439 c7 -7 15 -10 18 -7 3 3 -2 9 -12 12 -14 6 -15 5 -6 -5z"/>
<path d="M7630 3399 c0 -5 5 -7 10 -4 6 3 10 8 10 11 0 2 -4 4 -10 4 -5 0 -10
-5 -10 -11z"/>
<path d="M6865 3360 c-3 -6 1 -7 9 -4 18 7 21 14 7 14 -6 0 -13 -4 -16 -10z"/>
<path d="M5786 3202 c-3 -5 1 -9 9 -9 8 0 15 4 15 9 0 4 -4 8 -9 8 -6 0 -12
-4 -15 -8z"/>
<path d="M5580 3166 c0 -2 8 -10 18 -17 15 -13 16 -12 3 4 -13 16 -21 21 -21
13z"/>
<path d="M5745 3139 c-3 -4 2 -6 10 -5 21 3 28 13 10 13 -9 0 -18 -4 -20 -8z"/>
<path d="M5196 2967 c3 -10 9 -15 12 -12 3 3 0 11 -7 18 -10 9 -11 8 -5 -6z"/>
<path d="M5265 2840 c-3 -6 1 -7 9 -4 18 7 21 14 7 14 -6 0 -13 -4 -16 -10z"/>
<path d="M5153 2765 c0 -8 4 -12 9 -9 5 3 6 10 3 15 -9 13 -12 11 -12 -6z"/>
<path d="M3235 2761 c-3 -5 -2 -12 3 -15 5 -3 9 1 9 9 0 17 -3 19 -12 6z"/>
<path d="M3350 2598 c0 -4 4 -8 9 -8 6 0 12 4 15 8 3 5 -1 9 -9 9 -8 0 -15 -4
-15 -9z"/>
<path d="M4416 2558 c3 -5 10 -6 15 -3 13 9 11 12 -6 12 -8 0 -12 -4 -9 -9z"/>
<path d="M4600 2400 c-9 -6 -10 -10 -3 -10 6 0 15 5 18 10 8 12 4 12 -15 0z"/>
<path d="M4419 2313 c-13 -16 -12 -17 4 -4 9 7 17 15 17 17 0 8 -8 3 -21 -13z"/>
<path d="M4356 2047 c3 -10 9 -15 12 -12 3 3 0 11 -7 18 -10 9 -11 8 -5 -6z"/>
</g>
</svg>
