<?xml version="1.0" standalone="no"?>
<!DOCTYPE svg PUBLIC "-//W3C//DTD SVG 20010904//EN"
 "http://www.w3.org/TR/2001/REC-SVG-20010904/DTD/svg10.dtd">
<svg version="1.0" xmlns="http://www.w3.org/2000/svg"
 width="792.000000pt" height="792.000000pt" viewBox="0 0 792.000000 792.000000"
 preserveAspectRatio="xMidYMid meet">
<metadata>
Created by potrace 1.14, written by Peter Selinger 2001-2017
</metadata>
<g transform="translate(0.000000,792.000000) scale(0.100000,-0.100000)"
fill="#000000" stroke="none">
<path d="M4110 5700 l0 -1510 1490 0 1490 0 -2 1368 -3 1367 -32 66 c-39 80
-111 150 -191 187 l-57 27 -1347 3 -1348 2 0 -1510z m2245 120 l0 -795 -465
-3 c-270 -2 -511 1 -575 8 -262 24 -405 101 -482 258 l-38 76 1 151 c0 145 30
365 52 387 7 7 231 -28 241 -38 2 -2 -3 -41 -12 -86 -24 -126 -40 -285 -33
-331 15 -90 68 -144 174 -174 47 -13 128 -17 470 -20 l412 -5 0 686 0 687 128
-3 127 -3 0 -795z m-597 323 c23 -8 42 -18 42 -22 0 -3 -20 -35 -43 -71 -27
-40 -49 -63 -58 -61 -102 30 -176 -18 -167 -110 l3 -34 153 -3 152 -3 0 -79 0
-80 -265 0 -265 0 0 80 c0 73 2 80 20 80 17 0 20 7 20 49 0 202 206 331 408
254z"/>
</g>
</svg>
