<svg xmlns="http://www.w3.org/2000/svg" xmlns:xlink="http://www.w3.org/1999/xlink" width="1920" height="1080"
  viewBox="0 0 1920 1080">
  <defs>
    <linearGradient id="linear-gradient" x2="0.037" y2="1" gradientUnits="objectBoundingBox">
      <stop offset="0" stop-color="#1af8b3" />
      <stop offset="1" stop-color="#281f82" />
    </linearGradient>
    <filter id="Rectangle_1" x="-204.423" y="322.804" width="284.208" height="284.208" filterUnits="userSpaceOnUse">
      <feOffset dx="-7" dy="3" input="SourceAlpha" />
      <feGaussianBlur stdDeviation="4.5" result="blur" />
      <feFlood flood-opacity="0.161" />
      <feComposite operator="in" in2="blur" />
      <feComposite in="SourceGraphic" />
    </filter>
    <filter id="Rectangle_3" x="87.479" y="322.804" width="281.251" height="284.208" filterUnits="userSpaceOnUse">
      <feOffset dx="7" dy="3" input="SourceAlpha" />
      <feGaussianBlur stdDeviation="4.5" result="blur-2" />
      <feFlood flood-opacity="0.161" />
      <feComposite operator="in" in2="blur-2" />
      <feComposite in="SourceGraphic" />
    </filter>
    <filter id="Rectangle_4" x="87.479" y="603.663" width="281.251" height="278.295" filterUnits="userSpaceOnUse">
      <feOffset dx="7" dy="3" input="SourceAlpha" />
      <feGaussianBlur stdDeviation="4.5" result="blur-3" />
      <feFlood flood-opacity="0.161" />
      <feComposite operator="in" in2="blur-3" />
      <feComposite in="SourceGraphic" />
    </filter>
    <filter id="Path_1273" x="-204.423" y="603.663" width="284.208" height="278.295" filterUnits="userSpaceOnUse">
      <feOffset dx="-7" dy="3" input="SourceAlpha" />
      <feGaussianBlur stdDeviation="4.5" result="blur-4" />
      <feFlood flood-opacity="0.161" />
      <feComposite operator="in" in2="blur-4" />
      <feComposite in="SourceGraphic" />
    </filter>
    <filter id="Rectangle_1-2" x="1461.347" y="322.804" width="284.208" height="284.208" filterUnits="userSpaceOnUse">
      <feOffset dx="-7" dy="3" input="SourceAlpha" />
      <feGaussianBlur stdDeviation="4.5" result="blur-5" />
      <feFlood flood-opacity="0.161" />
      <feComposite operator="in" in2="blur-5" />
      <feComposite in="SourceGraphic" />
    </filter>
    <filter id="Rectangle_3-2" x="1753.249" y="322.804" width="281.251" height="284.208" filterUnits="userSpaceOnUse">
      <feOffset dx="7" dy="3" input="SourceAlpha" />
      <feGaussianBlur stdDeviation="4.5" result="blur-6" />
      <feFlood flood-opacity="0.161" />
      <feComposite operator="in" in2="blur-6" />
      <feComposite in="SourceGraphic" />
    </filter>
    <filter id="Rectangle_4-2" x="1753.249" y="603.663" width="281.251" height="278.295" filterUnits="userSpaceOnUse">
      <feOffset dx="7" dy="3" input="SourceAlpha" />
      <feGaussianBlur stdDeviation="4.5" result="blur-7" />
      <feFlood flood-opacity="0.161" />
      <feComposite operator="in" in2="blur-7" />
      <feComposite in="SourceGraphic" />
    </filter>
    <filter id="Rectangle_2" x="1461.347" y="603.663" width="284.208" height="278.295" filterUnits="userSpaceOnUse">
      <feOffset dx="-7" dy="3" input="SourceAlpha" />
      <feGaussianBlur stdDeviation="4.5" result="blur-8" />
      <feFlood flood-opacity="0.161" />
      <feComposite operator="in" in2="blur-8" />
      <feComposite in="SourceGraphic" />
    </filter>
    <filter id="Rectangle_1-3" x="1461.347" y="873.805" width="284.208" height="284.208" filterUnits="userSpaceOnUse">
      <feOffset dx="-7" dy="3" input="SourceAlpha" />
      <feGaussianBlur stdDeviation="4.5" result="blur-9" />
      <feFlood flood-opacity="0.161" />
      <feComposite operator="in" in2="blur-9" />
      <feComposite in="SourceGraphic" />
    </filter>
    <filter id="Rectangle_3-3" x="1753.249" y="873.805" width="281.251" height="284.208" filterUnits="userSpaceOnUse">
      <feOffset dx="7" dy="3" input="SourceAlpha" />
      <feGaussianBlur stdDeviation="4.5" result="blur-10" />
      <feFlood flood-opacity="0.161" />
      <feComposite operator="in" in2="blur-10" />
      <feComposite in="SourceGraphic" />
    </filter>
    <filter id="Rectangle_4-3" x="1753.249" y="1154.664" width="281.251" height="278.295" filterUnits="userSpaceOnUse">
      <feOffset dx="7" dy="3" input="SourceAlpha" />
      <feGaussianBlur stdDeviation="4.5" result="blur-11" />
      <feFlood flood-opacity="0.161" />
      <feComposite operator="in" in2="blur-11" />
      <feComposite in="SourceGraphic" />
    </filter>
    <filter id="Rectangle_2-2" x="1461.347" y="1154.664" width="284.208" height="278.295" filterUnits="userSpaceOnUse">
      <feOffset dx="-7" dy="3" input="SourceAlpha" />
      <feGaussianBlur stdDeviation="4.5" result="blur-12" />
      <feFlood flood-opacity="0.161" />
      <feComposite operator="in" in2="blur-12" />
      <feComposite in="SourceGraphic" />
    </filter>
    <filter id="Rectangle_1-4" x="907.423" y="873.805" width="284.208" height="284.208" filterUnits="userSpaceOnUse">
      <feOffset dx="-7" dy="3" input="SourceAlpha" />
      <feGaussianBlur stdDeviation="4.5" result="blur-13" />
      <feFlood flood-opacity="0.161" />
      <feComposite operator="in" in2="blur-13" />
      <feComposite in="SourceGraphic" />
    </filter>
    <filter id="Rectangle_3-4" x="1199.325" y="873.805" width="281.251" height="284.208" filterUnits="userSpaceOnUse">
      <feOffset dx="7" dy="3" input="SourceAlpha" />
      <feGaussianBlur stdDeviation="4.5" result="blur-14" />
      <feFlood flood-opacity="0.161" />
      <feComposite operator="in" in2="blur-14" />
      <feComposite in="SourceGraphic" />
    </filter>
    <filter id="Rectangle_4-4" x="1199.325" y="1154.664" width="281.251" height="278.295" filterUnits="userSpaceOnUse">
      <feOffset dx="7" dy="3" input="SourceAlpha" />
      <feGaussianBlur stdDeviation="4.5" result="blur-15" />
      <feFlood flood-opacity="0.161" />
      <feComposite operator="in" in2="blur-15" />
      <feComposite in="SourceGraphic" />
    </filter>
    <filter id="Rectangle_2-3" x="907.423" y="1154.664" width="284.208" height="278.295" filterUnits="userSpaceOnUse">
      <feOffset dx="-7" dy="3" input="SourceAlpha" />
      <feGaussianBlur stdDeviation="4.5" result="blur-16" />
      <feFlood flood-opacity="0.161" />
      <feComposite operator="in" in2="blur-16" />
      <feComposite in="SourceGraphic" />
    </filter>
    <filter id="Rectangle_1-5" x="907.423" y="322.804" width="284.208" height="284.208" filterUnits="userSpaceOnUse">
      <feOffset dx="-7" dy="3" input="SourceAlpha" />
      <feGaussianBlur stdDeviation="4.5" result="blur-17" />
      <feFlood flood-opacity="0.161" />
      <feComposite operator="in" in2="blur-17" />
      <feComposite in="SourceGraphic" />
    </filter>
    <filter id="Rectangle_3-5" x="1199.325" y="322.804" width="281.251" height="284.208" filterUnits="userSpaceOnUse">
      <feOffset dx="7" dy="3" input="SourceAlpha" />
      <feGaussianBlur stdDeviation="4.5" result="blur-18" />
      <feFlood flood-opacity="0.161" />
      <feComposite operator="in" in2="blur-18" />
      <feComposite in="SourceGraphic" />
    </filter>
    <filter id="Rectangle_4-5" x="1199.325" y="603.663" width="281.251" height="278.295" filterUnits="userSpaceOnUse">
      <feOffset dx="7" dy="3" input="SourceAlpha" />
      <feGaussianBlur stdDeviation="4.5" result="blur-19" />
      <feFlood flood-opacity="0.161" />
      <feComposite operator="in" in2="blur-19" />
      <feComposite in="SourceGraphic" />
    </filter>
    <filter id="Rectangle_2-4" x="907.423" y="603.663" width="284.208" height="278.295" filterUnits="userSpaceOnUse">
      <feOffset dx="-7" dy="3" input="SourceAlpha" />
      <feGaussianBlur stdDeviation="4.5" result="blur-20" />
      <feFlood flood-opacity="0.161" />
      <feComposite operator="in" in2="blur-20" />
      <feComposite in="SourceGraphic" />
    </filter>
    <filter id="Rectangle_1-6" x="351.5" y="873.805" width="284.208" height="284.208" filterUnits="userSpaceOnUse">
      <feOffset dx="-7" dy="3" input="SourceAlpha" />
      <feGaussianBlur stdDeviation="4.5" result="blur-21" />
      <feFlood flood-opacity="0.161" />
      <feComposite operator="in" in2="blur-21" />
      <feComposite in="SourceGraphic" />
    </filter>
    <filter id="Rectangle_3-6" x="643.402" y="873.805" width="281.251" height="284.208" filterUnits="userSpaceOnUse">
      <feOffset dx="7" dy="3" input="SourceAlpha" />
      <feGaussianBlur stdDeviation="4.5" result="blur-22" />
      <feFlood flood-opacity="0.161" />
      <feComposite operator="in" in2="blur-22" />
      <feComposite in="SourceGraphic" />
    </filter>
    <filter id="Rectangle_4-6" x="643.402" y="1154.664" width="281.251" height="278.295" filterUnits="userSpaceOnUse">
      <feOffset dx="7" dy="3" input="SourceAlpha" />
      <feGaussianBlur stdDeviation="4.5" result="blur-23" />
      <feFlood flood-opacity="0.161" />
      <feComposite operator="in" in2="blur-23" />
      <feComposite in="SourceGraphic" />
    </filter>
    <filter id="Rectangle_2-5" x="351.5" y="1154.664" width="284.208" height="278.295" filterUnits="userSpaceOnUse">
      <feOffset dx="-7" dy="3" input="SourceAlpha" />
      <feGaussianBlur stdDeviation="4.5" result="blur-24" />
      <feFlood flood-opacity="0.161" />
      <feComposite operator="in" in2="blur-24" />
      <feComposite in="SourceGraphic" />
    </filter>
    <filter id="Rectangle_1-7" x="351.5" y="322.804" width="284.208" height="284.208" filterUnits="userSpaceOnUse">
      <feOffset dx="-7" dy="3" input="SourceAlpha" />
      <feGaussianBlur stdDeviation="4.5" result="blur-25" />
      <feFlood flood-opacity="0.161" />
      <feComposite operator="in" in2="blur-25" />
      <feComposite in="SourceGraphic" />
    </filter>
    <filter id="Rectangle_3-7" x="643.402" y="322.804" width="281.251" height="284.208" filterUnits="userSpaceOnUse">
      <feOffset dx="7" dy="3" input="SourceAlpha" />
      <feGaussianBlur stdDeviation="4.5" result="blur-26" />
      <feFlood flood-opacity="0.161" />
      <feComposite operator="in" in2="blur-26" />
      <feComposite in="SourceGraphic" />
    </filter>
    <filter id="Rectangle_4-7" x="643.402" y="603.663" width="281.251" height="278.295" filterUnits="userSpaceOnUse">
      <feOffset dx="7" dy="3" input="SourceAlpha" />
      <feGaussianBlur stdDeviation="4.5" result="blur-27" />
      <feFlood flood-opacity="0.161" />
      <feComposite operator="in" in2="blur-27" />
      <feComposite in="SourceGraphic" />
    </filter>
    <filter id="Rectangle_2-6" x="351.5" y="603.663" width="284.208" height="278.295" filterUnits="userSpaceOnUse">
      <feOffset dx="-7" dy="3" input="SourceAlpha" />
      <feGaussianBlur stdDeviation="4.5" result="blur-28" />
      <feFlood flood-opacity="0.161" />
      <feComposite operator="in" in2="blur-28" />
      <feComposite in="SourceGraphic" />
    </filter>
    <filter id="Rectangle_1-8" x="-204.423" y="873.805" width="284.208" height="284.208" filterUnits="userSpaceOnUse">
      <feOffset dx="-7" dy="3" input="SourceAlpha" />
      <feGaussianBlur stdDeviation="4.5" result="blur-29" />
      <feFlood flood-opacity="0.161" />
      <feComposite operator="in" in2="blur-29" />
      <feComposite in="SourceGraphic" />
    </filter>
    <filter id="Rectangle_3-8" x="87.479" y="873.805" width="281.251" height="284.208" filterUnits="userSpaceOnUse">
      <feOffset dx="7" dy="3" input="SourceAlpha" />
      <feGaussianBlur stdDeviation="4.5" result="blur-30" />
      <feFlood flood-opacity="0.161" />
      <feComposite operator="in" in2="blur-30" />
      <feComposite in="SourceGraphic" />
    </filter>
    <filter id="Rectangle_4-8" x="87.479" y="1154.664" width="281.251" height="278.295" filterUnits="userSpaceOnUse">
      <feOffset dx="7" dy="3" input="SourceAlpha" />
      <feGaussianBlur stdDeviation="4.5" result="blur-31" />
      <feFlood flood-opacity="0.161" />
      <feComposite operator="in" in2="blur-31" />
      <feComposite in="SourceGraphic" />
    </filter>
    <filter id="Rectangle_2-7" x="-204.423" y="1154.664" width="284.208" height="278.295" filterUnits="userSpaceOnUse">
      <feOffset dx="-7" dy="3" input="SourceAlpha" />
      <feGaussianBlur stdDeviation="4.5" result="blur-32" />
      <feFlood flood-opacity="0.161" />
      <feComposite operator="in" in2="blur-32" />
      <feComposite in="SourceGraphic" />
    </filter>
    <clipPath id="clip-Web_1920_28">
      <rect width="1920" height="1080" />
    </clipPath>
  </defs>
  <g id="Web_1920_28" data-name="Web 1920 – 28" clip-path="url(#clip-Web_1920_28)">
    <rect width="1920" height="1080" fill="url(#linear-gradient)" />
    <g id="Group_116" data-name="Group 116" transform="translate(0 47)">
      <g id="Group_82" data-name="Group 82" transform="translate(-184.197 237.799)" opacity="0.28">
        <g transform="matrix(1, 0, 0, 1, 184.2, -284.8)" filter="url(#Rectangle_1)">
          <rect id="Rectangle_1-9" data-name="Rectangle 1" width="257.208" height="257.208"
            transform="translate(-183.92 333.3)" fill="#f8f811" />
        </g>
        <g transform="matrix(1, 0, 0, 1, 184.2, -284.8)" filter="url(#Rectangle_3)">
          <rect id="Rectangle_3-9" data-name="Rectangle 3" width="254.251" height="257.208"
            transform="translate(93.98 333.3)" fill="#11f820" />
        </g>
        <g transform="matrix(1, 0, 0, 1, 184.2, -284.8)" filter="url(#Rectangle_4)">
          <rect id="Rectangle_4-9" data-name="Rectangle 4" width="254.251" height="251.295"
            transform="translate(93.98 614.16)" fill="#ffbe66" />
        </g>
        <g transform="matrix(1, 0, 0, 1, 184.2, -284.8)" filter="url(#Path_1273)">
          <path id="Path_1273-2" data-name="Path 1273" d="M0,0H257.208V251.295H0Z" transform="translate(-183.92 614.16)"
            fill="#56ffe8" />
        </g>
        <path id="Path_1290" data-name="Path 1290"
          d="M45.5-86.5C15.224-86.5,6.92-73.006,6.92-43.25S15.224,0,45.5,0H65.74V2.6C65.74,19.03,59.685,25.6,46.71,25.6c-6.055,0-14.013-1.038-23.355-3.114L19.376,39.1c9,1.9,19.376,3.46,27.334,3.46C71.968,42.558,84.6,26.815,84.6,2.6V-86.5Zm0,69.546c-16.435,0-19.722-2.941-19.722-26.3s3.287-26.3,19.722-26.3H65.74v52.592Z"
          transform="translate(108.782 204.742)" fill="#fff" />
        <path id="Path_1288" data-name="Path 1288"
          d="M45.65-83H63.744v-19.256H45.65ZM55.444,41.168c27.058,0,46.978-15.106,46.978-38.844V-83H84.328V2.324C84.328,16.1,73.87,24.9,55.444,24.9c-18.592,0-30.71-9.96-30.71-23.572,0-6.142,2.158-23.406,5.976-46.48L12.782-47.808C9.96-30.378,6.64-7.636,6.64,1.328,6.64,24.568,27.556,41.168,55.444,41.168Z"
          transform="translate(347.803 206.132)" fill="#fff" />
        <path id="Path_1289" data-name="Path 1289"
          d="M45.5-17.836H0c-3.094,0-3.64,3.458-3.64,8.918S-3.094,0,0,0H45.5c3.094,0,3.64-3.458,3.64-8.918S48.594-17.836,45.5-17.836Zm71.89-83.538c-17.472,0-36.946,4.55-48.048,7.462l2.73,15.288c12.376-2,29.666-4.732,43.5-4.732,30.212,0,43.862,12.922,43.862,45.682v19.838h-22.2v-8.736a35.4,35.4,0,0,0-35.49-35.49A36.034,36.034,0,0,0,65.7-26.39v8.554H45.5c-3.094,0-3.64,3.458-3.64,8.918S42.406,0,45.5,0H179.27V-37.674C179.27-86.632,148.512-101.374,117.39-101.374ZM85.54-17.836V-26.39c0-10.01,7.462-17.836,16.2-17.836,8.554,0,15.652,7.826,15.652,17.654v8.736Z"
          transform="translate(314.518 505.698)" fill="#fff" />
        <text id="ة" transform="translate(69.148 465.433)" fill="#fff" font-size="154"
          font-family="Cairo-SemiBold, Cairo" font-weight="600">
          <tspan x="0" y="0">ة</tspan>
        </text>
      </g>
      <g id="Group_83" data-name="Group 83" transform="translate(1481.572 237.799)" opacity="0.28">
        <g transform="matrix(1, 0, 0, 1, -1481.57, -284.8)" filter="url(#Rectangle_1-2)">
          <rect id="Rectangle_1-10" data-name="Rectangle 1" width="257.208" height="257.208"
            transform="translate(1481.85 333.3)" fill="#f8f811" />
        </g>
        <g transform="matrix(1, 0, 0, 1, -1481.57, -284.8)" filter="url(#Rectangle_3-2)">
          <rect id="Rectangle_3-10" data-name="Rectangle 3" width="254.251" height="257.208"
            transform="translate(1759.75 333.3)" fill="#11f820" />
        </g>
        <g transform="matrix(1, 0, 0, 1, -1481.57, -284.8)" filter="url(#Rectangle_4-2)">
          <rect id="Rectangle_4-10" data-name="Rectangle 4" width="254.251" height="251.295"
            transform="translate(1759.75 614.16)" fill="#ffbe66" />
        </g>
        <g transform="matrix(1, 0, 0, 1, -1481.57, -284.8)" filter="url(#Rectangle_2)">
          <rect id="Rectangle_2-8" data-name="Rectangle 2" width="257.208" height="251.295"
            transform="translate(1481.85 614.16)" fill="#56ffe8" />
        </g>
        <path id="Path_1277" data-name="Path 1277"
          d="M61.761-106.914H42.9v20.068H61.761Zm29.583,0H72.487v20.068H91.344ZM108.471-86.5v69.546H58.3c-25.431,0-32.524-5.536-32.524-19.722,0-9.169,2.768-20.587,4.152-27.68l-18.511-3.46c-1.384,7.266-4.5,20.241-4.5,30.967C6.92-11.591,23.874,0,58.3,0h69.027V-86.5Z"
          transform="translate(68.782 226.742)" fill="#fff" />
        <path id="Path_1276" data-name="Path 1276"
          d="M21.414-135.124a10.684,10.684,0,0,1-.83-3.984,8.374,8.374,0,0,1,8.632-8.632,10.3,10.3,0,0,1,5.312,1.494L41-156.04a24.9,24.9,0,0,0-11.786-3.154c-11.786,0-21.248,8.8-21.248,20.086a32.236,32.236,0,0,0,.332,3.984H4.98v11.454H43.658v-11.454ZM15.438,0H33.532V-117.528H15.438Z"
          transform="translate(366.858 264.505)" fill="#fff" />
        <path id="Path_1279" data-name="Path 1279"
          d="M114.114-91v73.164H61.334c-26.754,0-34.216-5.824-34.216-20.748,0-9.646,2.912-21.658,4.368-29.12l-19.474-3.64C10.556-63.7,7.28-50.05,7.28-38.766,7.28-12.194,25.116,0,61.334,0h72.618V-91ZM60.606,31.85H80.444V10.92H60.606Z"
          transform="translate(331.302 474.712)" fill="#fff" />
        <path id="Path_1278" data-name="Path 1278"
          d="M67.452-118.272h-15.4v16.324h15.4Zm-12.474,23.1H38.192v17.864H54.978Zm9.394,17.864H81.158V-95.172H64.372ZM96.558-77v61.908H51.9c-22.638,0-28.952-4.928-28.952-17.556,0-8.162,2.464-18.326,3.7-24.64l-16.478-3.08c-1.232,6.468-4,18.018-4,27.566C6.16-10.318,21.252,0,51.9,0h61.446V-77Z"
          transform="translate(83.782 503.201)" fill="#fff" />
      </g>
      <g id="Group_84" data-name="Group 84" transform="translate(1481.572 788.8)" opacity="0.28">
        <g transform="matrix(1, 0, 0, 1, -1481.57, -835.8)" filter="url(#Rectangle_1-3)">
          <rect id="Rectangle_1-11" data-name="Rectangle 1" width="257.208" height="257.208"
            transform="translate(1481.85 884.3)" fill="#f8f811" />
        </g>
        <g transform="matrix(1, 0, 0, 1, -1481.57, -835.8)" filter="url(#Rectangle_3-3)">
          <rect id="Rectangle_3-11" data-name="Rectangle 3" width="254.251" height="257.208"
            transform="translate(1759.75 884.3)" fill="#11f820" />
        </g>
        <g transform="matrix(1, 0, 0, 1, -1481.57, -835.8)" filter="url(#Rectangle_4-3)">
          <rect id="Rectangle_4-11" data-name="Rectangle 4" width="254.251" height="251.295"
            transform="translate(1759.75 1165.16)" fill="#ffbe66" />
        </g>
        <g transform="matrix(1, 0, 0, 1, -1481.57, -835.8)" filter="url(#Rectangle_2-2)">
          <rect id="Rectangle_2-9" data-name="Rectangle 2" width="257.208" height="251.295"
            transform="translate(1481.85 1165.16)" fill="#56ffe8" />
        </g>
        <path id="Path_1292" data-name="Path 1292"
          d="M47.229-86.5c-10.207,0-21.106,1.9-30.967,4.5l1.9,15.4C32.7-68.335,40.828-69.373,47.4-69.373c16.954,0,25.085,6.747,25.085,20.241v32.178H51.381C23.874-16.954,6.92-3.46,6.92,19.549,6.92,42.9,24.047,56.4,51.035,56.4A98.294,98.294,0,0,0,65.74,55.187L62.8,38.752a106.592,106.592,0,0,1-11.418.692c-18.338,0-25.6-7.093-25.6-19.722C25.777,6.92,33.043,0,51.381,0H91.344V-49.132C91.344-72.833,73.871-86.5,47.229-86.5ZM59.512,29.237h15.4V12.629h-15.4Z"
          transform="translate(68.782 226.742)" fill="#fff" />
        <path id="Path_1291" data-name="Path 1291"
          d="M49.3,0H87.648V-47.144C87.648-69.886,70.882-83,45.318-83A120.11,120.11,0,0,0,15.6-78.684L17.43-63.91c13.944-1.66,21.746-2.656,28.054-2.656,16.268,0,24.07,6.474,24.07,19.422v30.876H49.3C22.908-16.268,6.64-3.32,6.64,18.758c0,22.41,16.434,35.358,42.33,35.358,7.3,0,15.106-1,28.22-3.984L74.368,35.524c-11.786,1.66-19.754,2.324-25.066,2.324-17.6,0-24.568-6.806-24.568-18.924C24.734,6.64,31.706,0,49.3,0Z"
          transform="translate(340.428 217.742)" fill="#fff" />
        <path id="Path_1293" data-name="Path 1293"
          d="M114.114-91v73.164H61.334c-26.754,0-34.216-5.824-34.216-20.748,0-9.646,2.912-21.658,4.368-29.12l-19.474-3.64C10.556-63.7,7.28-50.05,7.28-38.766,7.28-12.194,25.116,0,61.334,0h72.618V-91ZM60.606,31.85H80.444V10.92H60.606Z"
          transform="translate(331.302 474.712)" fill="#fff" />
        <path id="Path_1294" data-name="Path 1294"
          d="M67.452-118.272h-15.4v16.324h15.4Zm-12.474,23.1H38.192v17.864H54.978Zm9.394,17.864H81.158V-95.172H64.372ZM96.558-77v61.908H51.9c-22.638,0-28.952-4.928-28.952-17.556,0-8.162,2.464-18.326,3.7-24.64l-16.478-3.08c-1.232,6.468-4,18.018-4,27.566C6.16-10.318,21.252,0,51.9,0h61.446V-77Z"
          transform="translate(96.148 484.433)" fill="#fff" />
      </g>
      <g id="Group_85" data-name="Group 85" transform="translate(927.648 788.8)" opacity="0.28">
        <g transform="matrix(1, 0, 0, 1, -927.65, -835.8)" filter="url(#Rectangle_1-4)">
          <rect id="Rectangle_1-12" data-name="Rectangle 1" width="257.208" height="257.208"
            transform="translate(927.92 884.3)" fill="#f8f811" />
        </g>
        <g transform="matrix(1, 0, 0, 1, -927.65, -835.8)" filter="url(#Rectangle_3-4)">
          <rect id="Rectangle_3-12" data-name="Rectangle 3" width="254.251" height="257.208"
            transform="translate(1205.83 884.3)" fill="#11f820" />
        </g>
        <g transform="matrix(1, 0, 0, 1, -927.65, -835.8)" filter="url(#Rectangle_4-4)">
          <rect id="Rectangle_4-12" data-name="Rectangle 4" width="254.251" height="251.295"
            transform="translate(1205.83 1165.16)" fill="#ffbe66" />
        </g>
        <g transform="matrix(1, 0, 0, 1, -927.65, -835.8)" filter="url(#Rectangle_2-3)">
          <rect id="Rectangle_2-10" data-name="Rectangle 2" width="257.208" height="251.295"
            transform="translate(927.92 1165.16)" fill="#56ffe8" />
        </g>
        <path id="Path_1296" data-name="Path 1296"
          d="M61.761-106.914H42.9v20.068H61.761Zm29.583,0H72.487v20.068H91.344ZM108.471-86.5v69.546H58.3c-25.431,0-32.524-5.536-32.524-19.722,0-9.169,2.768-20.587,4.152-27.68l-18.511-3.46c-1.384,7.266-4.5,20.241-4.5,30.967C6.92-11.591,23.874,0,58.3,0h69.027V-86.5Z"
          transform="translate(68.782 226.742)" fill="#fff" />
        <path id="Path_1295" data-name="Path 1295"
          d="M21.414-135.124a10.684,10.684,0,0,1-.83-3.984,8.374,8.374,0,0,1,8.632-8.632,10.3,10.3,0,0,1,5.312,1.494L41-156.04a24.9,24.9,0,0,0-11.786-3.154c-11.786,0-21.248,8.8-21.248,20.086a32.236,32.236,0,0,0,.332,3.984H4.98v11.454H43.658v-11.454ZM15.438,0H33.532V-117.528H15.438Z"
          transform="translate(380.983 256.706)" fill="#fff" />
        <text id="ب" transform="translate(331.302 474.712)" fill="#fff" font-size="182"
          font-family="Cairo-SemiBold, Cairo" font-weight="600">
          <tspan x="0" y="0">ب</tspan>
        </text>
        <text id="ث" transform="translate(96.148 484.433)" fill="#fff" font-size="154"
          font-family="Cairo-SemiBold, Cairo" font-weight="600">
          <tspan x="0" y="0">ث</tspan>
        </text>
      </g>
      <g id="Group_94" data-name="Group 94" transform="translate(927.648 237.799)" opacity="0.28">
        <g transform="matrix(1, 0, 0, 1, -927.65, -284.8)" filter="url(#Rectangle_1-5)">
          <rect id="Rectangle_1-13" data-name="Rectangle 1" width="257.208" height="257.208"
            transform="translate(927.92 333.3)" fill="#f8f811" />
        </g>
        <g transform="matrix(1, 0, 0, 1, -927.65, -284.8)" filter="url(#Rectangle_3-5)">
          <rect id="Rectangle_3-13" data-name="Rectangle 3" width="254.251" height="257.208"
            transform="translate(1205.83 333.3)" fill="#11f820" />
        </g>
        <g transform="matrix(1, 0, 0, 1, -927.65, -284.8)" filter="url(#Rectangle_4-5)">
          <rect id="Rectangle_4-13" data-name="Rectangle 4" width="254.251" height="251.295"
            transform="translate(1205.83 614.16)" fill="#ffbe66" />
        </g>
        <g transform="matrix(1, 0, 0, 1, -927.65, -284.8)" filter="url(#Rectangle_2-4)">
          <rect id="Rectangle_2-11" data-name="Rectangle 2" width="257.208" height="251.295"
            transform="translate(927.92 614.16)" fill="#56ffe8" />
        </g>
        <path id="Path_1282" data-name="Path 1282"
          d="M61.761-106.914H42.9v20.068H61.761Zm29.583,0H72.487v20.068H91.344ZM108.471-86.5v69.546H58.3c-25.431,0-32.524-5.536-32.524-19.722,0-9.169,2.768-20.587,4.152-27.68l-18.511-3.46c-1.384,7.266-4.5,20.241-4.5,30.967C6.92-11.591,23.874,0,58.3,0h69.027V-86.5Z"
          transform="translate(68.782 226.742)" fill="#fff" />
        <path id="Path_1281" data-name="Path 1281"
          d="M21.414-135.124a10.684,10.684,0,0,1-.83-3.984,8.374,8.374,0,0,1,8.632-8.632,10.3,10.3,0,0,1,5.312,1.494L41-156.04a24.9,24.9,0,0,0-11.786-3.154c-11.786,0-21.248,8.8-21.248,20.086a32.236,32.236,0,0,0,.332,3.984H4.98v11.454H43.658v-11.454ZM15.438,0H33.532V-117.528H15.438Z"
          transform="translate(380.982 252.882)" fill="#fff" />
        <path id="Path_1280" data-name="Path 1280"
          d="M114.114-91v73.164H61.334c-26.754,0-34.216-5.824-34.216-20.748,0-9.646,2.912-21.658,4.368-29.12l-19.474-3.64C10.556-63.7,7.28-50.05,7.28-38.766,7.28-12.194,25.116,0,61.334,0h72.618V-91ZM60.606,31.85H80.444V10.92H60.606Z"
          transform="translate(334.686 484.586)" fill="#fff" />
        <path id="Path_1283" data-name="Path 1283"
          d="M67.452-118.272h-15.4v16.324h15.4Zm-12.474,23.1H38.192v17.864H54.978Zm9.394,17.864H81.158V-95.172H64.372ZM96.558-77v61.908H51.9c-22.638,0-28.952-4.928-28.952-17.556,0-8.162,2.464-18.326,3.7-24.64l-16.478-3.08c-1.232,6.468-4,18.018-4,27.566C6.16-10.318,21.252,0,51.9,0h61.446V-77Z"
          transform="translate(66.379 506.713)" fill="#fff" />
      </g>
      <g id="Group_86" data-name="Group 86" transform="translate(371.726 788.8)" opacity="0.28">
        <g transform="matrix(1, 0, 0, 1, -371.73, -835.8)" filter="url(#Rectangle_1-6)">
          <rect id="Rectangle_1-14" data-name="Rectangle 1" width="257.208" height="257.208"
            transform="translate(372 884.3)" fill="#f8f811" />
        </g>
        <g transform="matrix(1, 0, 0, 1, -371.73, -835.8)" filter="url(#Rectangle_3-6)">
          <rect id="Rectangle_3-14" data-name="Rectangle 3" width="254.251" height="257.208"
            transform="translate(649.9 884.3)" fill="#11f820" />
        </g>
        <g transform="matrix(1, 0, 0, 1, -371.73, -835.8)" filter="url(#Rectangle_4-6)">
          <rect id="Rectangle_4-14" data-name="Rectangle 4" width="254.251" height="251.295"
            transform="translate(649.9 1165.16)" fill="#ffbe66" />
        </g>
        <g transform="matrix(1, 0, 0, 1, -371.73, -835.8)" filter="url(#Rectangle_2-5)">
          <rect id="Rectangle_2-12" data-name="Rectangle 2" width="257.208" height="251.295"
            transform="translate(372 1165.16)" fill="#56ffe8" />
        </g>
        <path id="Path_1298" data-name="Path 1298"
          d="M155.873-86.5c-23.528,0-37.022,12.975-49.132,27.507V-86.5H87.884V2.422c0,14.359-10.9,23.528-30.1,23.528-19.376,0-32.005-10.38-32.005-24.566,0-6.4,2.249-24.393,6.228-48.44L13.321-49.824C10.38-31.659,6.92-7.958,6.92,1.384c0,24.22,21.8,41.52,50.862,41.52,28.2,0,48.959-15.743,48.959-40.482V0h89.441V-41.693C196.182-61.069,188.743-86.5,155.873-86.5ZM106.741-35.465c9.515-12.456,26.815-34.081,49.132-34.081,14.532,0,21.452,8.477,21.452,27.853v24.739H106.741Z"
          transform="translate(24.378 226.742)" fill="#fff" />
        <path id="Path_1297" data-name="Path 1297"
          d="M21.414-135.124a10.684,10.684,0,0,1-.83-3.984,8.374,8.374,0,0,1,8.632-8.632,10.3,10.3,0,0,1,5.312,1.494L41-156.04a24.9,24.9,0,0,0-11.786-3.154c-11.786,0-21.248,8.8-21.248,20.086a32.236,32.236,0,0,0,.332,3.984H4.98v11.454H43.658v-11.454ZM15.438,0H33.532V-117.528H15.438Z"
          transform="translate(380.983 263.505)" fill="#fff" />
        <text id="ب-2" data-name="ب" transform="translate(331.302 474.712)" fill="#fff" font-size="182"
          font-family="Cairo-SemiBold, Cairo" font-weight="600">
          <tspan x="0" y="0">ب</tspan>
        </text>
        <text id="ث-2" data-name="ث" transform="translate(96.148 484.433)" fill="#fff" font-size="154"
          font-family="Cairo-SemiBold, Cairo" font-weight="600">
          <tspan x="0" y="0">ث</tspan>
        </text>
      </g>
      <g id="Group_95" data-name="Group 95" transform="translate(371.726 237.799)" opacity="0.28">
        <g transform="matrix(1, 0, 0, 1, -371.73, -284.8)" filter="url(#Rectangle_1-7)">
          <rect id="Rectangle_1-15" data-name="Rectangle 1" width="257.208" height="257.208"
            transform="translate(372 333.3)" fill="#f8f811" />
        </g>
        <g transform="matrix(1, 0, 0, 1, -371.73, -284.8)" filter="url(#Rectangle_3-7)">
          <rect id="Rectangle_3-15" data-name="Rectangle 3" width="254.251" height="257.208"
            transform="translate(649.9 333.3)" fill="#11f820" />
        </g>
        <g transform="matrix(1, 0, 0, 1, -371.73, -284.8)" filter="url(#Rectangle_4-7)">
          <rect id="Rectangle_4-15" data-name="Rectangle 4" width="254.251" height="251.295"
            transform="translate(649.9 614.16)" fill="#ffbe66" />
        </g>
        <g transform="matrix(1, 0, 0, 1, -371.73, -284.8)" filter="url(#Rectangle_2-6)">
          <rect id="Rectangle_2-13" data-name="Rectangle 2" width="257.208" height="251.295"
            transform="translate(372 614.16)" fill="#56ffe8" />
        </g>
        <path id="Path_1285" data-name="Path 1285"
          d="M155.873-86.5c-23.528,0-37.022,12.975-49.132,27.507V-86.5H87.884V2.422c0,14.359-10.9,23.528-30.1,23.528-19.376,0-32.005-10.38-32.005-24.566,0-6.4,2.249-24.393,6.228-48.44L13.321-49.824C10.38-31.659,6.92-7.958,6.92,1.384c0,24.22,21.8,41.52,50.862,41.52,28.2,0,48.959-15.743,48.959-40.482V0h89.441V-41.693C196.182-61.069,188.743-86.5,155.873-86.5ZM106.741-35.465c9.515-12.456,26.815-34.081,49.132-34.081,14.532,0,21.452,8.477,21.452,27.853v24.739H106.741Z"
          transform="translate(24.579 213.802)" fill="#fff" />
        <path id="Path_1284" data-name="Path 1284"
          d="M21.414-135.124a10.684,10.684,0,0,1-.83-3.984,8.374,8.374,0,0,1,8.632-8.632,10.3,10.3,0,0,1,5.312,1.494L41-156.04a24.9,24.9,0,0,0-11.786-3.154c-11.786,0-21.248,8.8-21.248,20.086a32.236,32.236,0,0,0,.332,3.984H4.98v11.454H43.658v-11.454ZM15.438,0H33.532V-117.528H15.438Z"
          transform="translate(380.983 256.706)" fill="#fff" />
        <path id="Path_1287" data-name="Path 1287"
          d="M114.114-91v73.164H61.334c-26.754,0-34.216-5.824-34.216-20.748,0-9.646,2.912-21.658,4.368-29.12l-19.474-3.64C10.556-63.7,7.28-50.05,7.28-38.766,7.28-12.194,25.116,0,61.334,0h72.618V-91ZM60.606,31.85H80.444V10.92H60.606Z"
          transform="translate(334.685 484.586)" fill="#fff" />
        <path id="Path_1286" data-name="Path 1286"
          d="M67.452-118.272h-15.4v16.324h15.4Zm-12.474,23.1H38.192v17.864H54.978Zm9.394,17.864H81.158V-95.172H64.372ZM96.558-77v61.908H51.9c-22.638,0-28.952-4.928-28.952-17.556,0-8.162,2.464-18.326,3.7-24.64l-16.478-3.08c-1.232,6.468-4,18.018-4,27.566C6.16-10.318,21.252,0,51.9,0h61.446V-77Z"
          transform="translate(66.378 503.201)" fill="#fff" />
      </g>
      <g id="Group_87" data-name="Group 87" transform="translate(-184.197 788.8)" opacity="0.28">
        <g transform="matrix(1, 0, 0, 1, 184.2, -835.8)" filter="url(#Rectangle_1-8)">
          <rect id="Rectangle_1-16" data-name="Rectangle 1" width="257.208" height="257.208"
            transform="translate(-183.92 884.3)" fill="#f8f811" />
        </g>
        <g transform="matrix(1, 0, 0, 1, 184.2, -835.8)" filter="url(#Rectangle_3-8)">
          <rect id="Rectangle_3-16" data-name="Rectangle 3" width="254.251" height="257.208"
            transform="translate(93.98 884.3)" fill="#11f820" />
        </g>
        <g transform="matrix(1, 0, 0, 1, 184.2, -835.8)" filter="url(#Rectangle_4-8)">
          <rect id="Rectangle_4-16" data-name="Rectangle 4" width="254.251" height="251.295"
            transform="translate(93.98 1165.16)" fill="#ffbe66" />
        </g>
        <g transform="matrix(1, 0, 0, 1, 184.2, -835.8)" filter="url(#Rectangle_2-7)">
          <rect id="Rectangle_2-14" data-name="Rectangle 2" width="257.208" height="251.295"
            transform="translate(-183.92 1165.16)" fill="#56ffe8" />
        </g>
        <path id="Path_1300" data-name="Path 1300"
          d="M61.761-106.914H42.9v20.068H61.761Zm29.583,0H72.487v20.068H91.344ZM108.471-86.5v69.546H58.3c-25.431,0-32.524-5.536-32.524-19.722,0-9.169,2.768-20.587,4.152-27.68l-18.511-3.46c-1.384,7.266-4.5,20.241-4.5,30.967C6.92-11.591,23.874,0,58.3,0h69.027V-86.5Z"
          transform="translate(68.782 226.742)" fill="#fff" />
        <path id="Path_1299" data-name="Path 1299"
          d="M79.514-83C56.938-83,43.99-70.55,32.37-56.606v-60.922H14.276v101.26H3.32V0H118.192V-40.006C118.192-58.6,111.054-83,79.514-83ZM32.37-34.03c9.13-12.118,25.73-32.7,46.978-32.7,13.944,0,20.75,8.134,20.75,26.726v23.738H32.37Z"
          transform="translate(340.303 237.609)" fill="#fff" />
        <path id="Path_1301" data-name="Path 1301"
          d="M114.114-91v73.164H61.334c-26.754,0-34.216-5.824-34.216-20.748,0-9.646,2.912-21.658,4.368-29.12l-19.474-3.64C10.556-63.7,7.28-50.05,7.28-38.766,7.28-12.194,25.116,0,61.334,0h72.618V-91ZM60.606,31.85H80.444V10.92H60.606Z"
          transform="translate(331.302 474.712)" fill="#fff" />
        <path id="Path_1302" data-name="Path 1302"
          d="M67.452-118.272h-15.4v16.324h15.4Zm-12.474,23.1H38.192v17.864H54.978Zm9.394,17.864H81.158V-95.172H64.372ZM96.558-77v61.908H51.9c-22.638,0-28.952-4.928-28.952-17.556,0-8.162,2.464-18.326,3.7-24.64l-16.478-3.08c-1.232,6.468-4,18.018-4,27.566C6.16-10.318,21.252,0,51.9,0h61.446V-77Z"
          transform="translate(96.148 484.433)" fill="#fff" />
      </g>
    </g>
    <g id="Path_1275" data-name="Path 1275" fill="#0030cc" opacity="0.43">
      <path d="M 1919.5 1079.5 L 0.5 1079.5 L 0.5 0.5 L 1919.5 0.5 L 1919.5 1079.5 Z" stroke="none" />
      <path d="M 1 1 L 1 1079 L 1919 1079 L 1919 1 L 1 1 M 0 0 L 1920 0 L 1920 1080 L 0 1080 L 0 0 Z" stroke="none"
        fill="#707070" />
    </g>
  </g>
</svg>