<svg xmlns="http://www.w3.org/2000/svg" xmlns:xlink="http://www.w3.org/1999/xlink" width="79.816" height="80.292"
  viewBox="0 0 79.816 80.292">
  <defs>
    <filter id="Path_1273" x="10.32" y="4.971" width="60.289" height="68.289" filterUnits="userSpaceOnUse">
      <feOffset dy="8" input="SourceAlpha" />
      <feGaussianBlur result="blur" />
      <feFlood flood-color="#fff" flood-opacity="0.302" />
      <feComposite operator="in" in2="blur" />
    </filter>
    <filter id="Path_1273-2" x="10.32" y="4.971" width="60.289" height="68.289" filterUnits="userSpaceOnUse">
      <feOffset dy="3" input="SourceAlpha" />
      <feGaussianBlur stdDeviation="3" result="blur-2" />
      <feFlood flood-opacity="0" result="color" />
      <feComposite operator="out" in="SourceGraphic" in2="blur-2" />
      <feComposite operator="in" in="color" />
      <feComposite operator="in" in2="SourceGraphic" />
    </filter>
    <linearGradient id="linear-gradient" x2="1" y2="0.065" gradientUnits="objectBoundingBox">
      <stop offset="0" stop-color="#95aff3" />
      <stop offset="1" stop-color="#aa69cb" />
    </linearGradient>
    <filter id="Path_1" x="0" y="0" width="79.816" height="80.292" filterUnits="userSpaceOnUse">
      <feOffset dy="5" input="SourceAlpha" />
      <feGaussianBlur stdDeviation="5" result="blur-3" />
      <feFlood flood-color="#fff" flood-opacity="0.071" />
      <feComposite operator="in" in2="blur-3" />
      <feComposite in="SourceGraphic" />
    </filter>
    <filter id="Path_7" x="52.505" y="46.456" width="24.321" height="29.059" filterUnits="userSpaceOnUse">
      <feOffset dx="0.5" dy="12" input="SourceAlpha" />
      <feGaussianBlur stdDeviation="2.5" result="blur-4" />
      <feFlood flood-color="#fff" flood-opacity="0.09" />
      <feComposite operator="in" in2="blur-4" />
      <feComposite in="SourceGraphic" />
    </filter>
    <filter id="Path_8" x="1.32" y="13.484" width="27.136" height="27.393" filterUnits="userSpaceOnUse">
      <feOffset dy="7" input="SourceAlpha" />
      <feGaussianBlur stdDeviation="3" result="blur-5" />
      <feFlood flood-opacity="0.239" />
      <feComposite operator="in" in2="blur-5" />
      <feComposite in="SourceGraphic" />
    </filter>
  </defs>
  <g id="Group_217" data-name="Group 217" transform="translate(10.32 4.972)">
    <g id="Group_214" data-name="Group 214" transform="translate(0 0)">
      <g data-type="innerShadowGroup">
        <g transform="matrix(1, 0, 0, 1, -10.32, -4.97)" filter="url(#Path_1273)">
          <g id="Path_1273-3" data-name="Path 1273" transform="translate(10.32 35.12) rotate(-45)" fill="#3d0dd0"
            opacity="0.2">
            <path
              d="M 6.502475738525391 40.13070678710938 L 6.502465724945068 40.13070678710938 C 5.433365821838379 40.13070678710938 4.428255558013916 39.71437454223633 3.672285795211792 38.95840454101562 C 2.916315793991089 38.20243453979492 2.499985694885254 37.19732666015625 2.499985694885254 36.12821578979492 L 2.499995708465576 6.502495765686035 C 2.499995708465576 4.295506000518799 4.295506000518799 2.499995708465576 6.502495765686035 2.499995708465576 L 36.12821578979492 2.499985694885254 C 37.19732666015625 2.499985694885254 38.20243453979492 2.916315793991089 38.95840454101562 3.672285795211792 C 39.71437454223633 4.428255558013916 40.13070678710938 5.433365821838379 40.13070678710938 6.502465724945068 L 40.13069534301758 36.12820434570312 C 40.13069534301758 38.33518600463867 38.33518600463867 40.13069534301758 36.12820434570312 40.13069534301758 L 6.502475738525391 40.13070678710938 Z"
              stroke="none" />
            <path
              d="M 36.12821578979492 4.999984741210938 L 6.502494812011719 4.999996185302734 C 5.674015045166016 4.999996185302734 4.999996185302734 5.674015045166016 4.999996185302734 6.502494812011719 L 4.999984741210938 36.12822723388672 C 4.999984741210938 36.64259719848633 5.239295959472656 36.98987579345703 5.440044403076172 37.19063568115234 C 5.640804290771484 37.39139556884766 5.988094329833984 37.63070678710938 6.502475738525391 37.63070678710938 L 36.1281852722168 37.63069534301758 C 36.9566650390625 37.63069534301758 37.63069534301758 36.9566650390625 37.63069534301758 36.12819671630859 L 37.63070678710938 6.502475738525391 C 37.63070678710938 5.988094329833984 37.39139556884766 5.640804290771484 37.19063568115234 5.440044403076172 C 36.98987579345703 5.239295959472656 36.64259719848633 4.999984741210938 36.12822723388672 4.999984741210938 L 36.12821578979492 4.999984741210938 M 36.12821578979492 -1.52587890625e-05 C 39.71943664550781 -2.288818359375e-05 42.63070678710938 2.911247253417969 42.63070678710938 6.502475738525391 L 42.63069534301758 36.12819671630859 C 42.63068389892578 39.71941375732422 39.71941375732422 42.63068389892578 36.12819671630859 42.63069534301758 L 6.502475738525391 42.63070678710938 C 2.911247253417969 42.63070678710938 -2.288818359375e-05 39.71943664550781 -1.52587890625e-05 36.12821578979492 L -3.814697265625e-06 6.502494812011719 C -3.814697265625e-06 2.911266326904297 2.911266326904297 -3.814697265625e-06 6.502494812011719 -3.814697265625e-06 L 36.12821578979492 -1.52587890625e-05 Z"
              stroke="none" fill="#a678d4" />
          </g>
        </g>
        <g id="Path_1273-4" data-name="Path 1273" transform="translate(0 30.144) rotate(-45)" fill="#3d0dd0"
          opacity="0.2">
          <path
            d="M 6.502475738525391 40.13070678710938 L 6.502465724945068 40.13070678710938 C 5.433365821838379 40.13070678710938 4.428255558013916 39.71437454223633 3.672285795211792 38.95840454101562 C 2.916315793991089 38.20243453979492 2.499985694885254 37.19732666015625 2.499985694885254 36.12821578979492 L 2.499995708465576 6.502495765686035 C 2.499995708465576 4.295506000518799 4.295506000518799 2.499995708465576 6.502495765686035 2.499995708465576 L 36.12821578979492 2.499985694885254 C 37.19732666015625 2.499985694885254 38.20243453979492 2.916315793991089 38.95840454101562 3.672285795211792 C 39.71437454223633 4.428255558013916 40.13070678710938 5.433365821838379 40.13070678710938 6.502465724945068 L 40.13069534301758 36.12820434570312 C 40.13069534301758 38.33518600463867 38.33518600463867 40.13069534301758 36.12820434570312 40.13069534301758 L 6.502475738525391 40.13070678710938 Z"
            stroke="none" />
          <path
            d="M 36.12821578979492 4.999984741210938 L 6.502494812011719 4.999996185302734 C 5.674015045166016 4.999996185302734 4.999996185302734 5.674015045166016 4.999996185302734 6.502494812011719 L 4.999984741210938 36.12822723388672 C 4.999984741210938 36.64259719848633 5.239295959472656 36.98987579345703 5.440044403076172 37.19063568115234 C 5.640804290771484 37.39139556884766 5.988094329833984 37.63070678710938 6.502475738525391 37.63070678710938 L 36.1281852722168 37.63069534301758 C 36.9566650390625 37.63069534301758 37.63069534301758 36.9566650390625 37.63069534301758 36.12819671630859 L 37.63070678710938 6.502475738525391 C 37.63070678710938 5.988094329833984 37.39139556884766 5.640804290771484 37.19063568115234 5.440044403076172 C 36.98987579345703 5.239295959472656 36.64259719848633 4.999984741210938 36.12822723388672 4.999984741210938 L 36.12821578979492 4.999984741210938 M 36.12821578979492 -1.52587890625e-05 C 39.71943664550781 -2.288818359375e-05 42.63070678710938 2.911247253417969 42.63070678710938 6.502475738525391 L 42.63069534301758 36.12819671630859 C 42.63068389892578 39.71941375732422 39.71941375732422 42.63068389892578 36.12819671630859 42.63069534301758 L 6.502475738525391 42.63070678710938 C 2.911247253417969 42.63070678710938 -2.288818359375e-05 39.71943664550781 -1.52587890625e-05 36.12821578979492 L -3.814697265625e-06 6.502494812011719 C -3.814697265625e-06 2.911266326904297 2.911266326904297 -3.814697265625e-06 6.502494812011719 -3.814697265625e-06 L 36.12821578979492 -1.52587890625e-05 Z"
            stroke="none" />
        </g>
        <g transform="matrix(1, 0, 0, 1, -10.32, -4.97)" filter="url(#Path_1273-2)">
          <g id="Path_1273-5" data-name="Path 1273" transform="translate(10.32 35.12) rotate(-45)" fill="#fff"
            opacity="0.2">
            <path
              d="M 6.502475738525391 40.13070678710938 L 6.502465724945068 40.13070678710938 C 5.433365821838379 40.13070678710938 4.428255558013916 39.71437454223633 3.672285795211792 38.95840454101562 C 2.916315793991089 38.20243453979492 2.499985694885254 37.19732666015625 2.499985694885254 36.12821578979492 L 2.499995708465576 6.502495765686035 C 2.499995708465576 4.295506000518799 4.295506000518799 2.499995708465576 6.502495765686035 2.499995708465576 L 36.12821578979492 2.499985694885254 C 37.19732666015625 2.499985694885254 38.20243453979492 2.916315793991089 38.95840454101562 3.672285795211792 C 39.71437454223633 4.428255558013916 40.13070678710938 5.433365821838379 40.13070678710938 6.502465724945068 L 40.13069534301758 36.12820434570312 C 40.13069534301758 38.33518600463867 38.33518600463867 40.13069534301758 36.12820434570312 40.13069534301758 L 6.502475738525391 40.13070678710938 Z"
              stroke="none" />
            <path
              d="M 36.12821578979492 4.999984741210938 L 6.502494812011719 4.999996185302734 C 5.674015045166016 4.999996185302734 4.999996185302734 5.674015045166016 4.999996185302734 6.502494812011719 L 4.999984741210938 36.12822723388672 C 4.999984741210938 36.64259719848633 5.239295959472656 36.98987579345703 5.440044403076172 37.19063568115234 C 5.640804290771484 37.39139556884766 5.988094329833984 37.63070678710938 6.502475738525391 37.63070678710938 L 36.1281852722168 37.63069534301758 C 36.9566650390625 37.63069534301758 37.63069534301758 36.9566650390625 37.63069534301758 36.12819671630859 L 37.63070678710938 6.502475738525391 C 37.63070678710938 5.988094329833984 37.39139556884766 5.640804290771484 37.19063568115234 5.440044403076172 C 36.98987579345703 5.239295959472656 36.64259719848633 4.999984741210938 36.12822723388672 4.999984741210938 L 36.12821578979492 4.999984741210938 M 36.12821578979492 -1.52587890625e-05 C 39.71943664550781 -2.288818359375e-05 42.63070678710938 2.911247253417969 42.63070678710938 6.502475738525391 L 42.63069534301758 36.12819671630859 C 42.63068389892578 39.71941375732422 39.71941375732422 42.63068389892578 36.12819671630859 42.63069534301758 L 6.502475738525391 42.63070678710938 C 2.911247253417969 42.63070678710938 -2.288818359375e-05 39.71943664550781 -1.52587890625e-05 36.12821578979492 L -3.814697265625e-06 6.502494812011719 C -3.814697265625e-06 2.911266326904297 2.911266326904297 -3.814697265625e-06 6.502494812011719 -3.814697265625e-06 L 36.12821578979492 -1.52587890625e-05 Z"
              stroke="none" />
          </g>
        </g>
        <g id="Path_1273-6" data-name="Path 1273" transform="translate(0 30.144) rotate(-45)" fill="none" opacity="0.2">
          <path
            d="M 6.502475738525391 40.13070678710938 L 6.502465724945068 40.13070678710938 C 5.433365821838379 40.13070678710938 4.428255558013916 39.71437454223633 3.672285795211792 38.95840454101562 C 2.916315793991089 38.20243453979492 2.499985694885254 37.19732666015625 2.499985694885254 36.12821578979492 L 2.499995708465576 6.502495765686035 C 2.499995708465576 4.295506000518799 4.295506000518799 2.499995708465576 6.502495765686035 2.499995708465576 L 36.12821578979492 2.499985694885254 C 37.19732666015625 2.499985694885254 38.20243453979492 2.916315793991089 38.95840454101562 3.672285795211792 C 39.71437454223633 4.428255558013916 40.13070678710938 5.433365821838379 40.13070678710938 6.502465724945068 L 40.13069534301758 36.12820434570312 C 40.13069534301758 38.33518600463867 38.33518600463867 40.13069534301758 36.12820434570312 40.13069534301758 L 6.502475738525391 40.13070678710938 Z"
            stroke="none" />
          <path
            d="M 36.12821578979492 4.999984741210938 L 6.502494812011719 4.999996185302734 C 5.674015045166016 4.999996185302734 4.999996185302734 5.674015045166016 4.999996185302734 6.502494812011719 L 4.999984741210938 36.12822723388672 C 4.999984741210938 36.64259719848633 5.239295959472656 36.98987579345703 5.440044403076172 37.19063568115234 C 5.640804290771484 37.39139556884766 5.988094329833984 37.63070678710938 6.502475738525391 37.63070678710938 L 36.1281852722168 37.63069534301758 C 36.9566650390625 37.63069534301758 37.63069534301758 36.9566650390625 37.63069534301758 36.12819671630859 L 37.63070678710938 6.502475738525391 C 37.63070678710938 5.988094329833984 37.39139556884766 5.640804290771484 37.19063568115234 5.440044403076172 C 36.98987579345703 5.239295959472656 36.64259719848633 4.999984741210938 36.12822723388672 4.999984741210938 L 36.12821578979492 4.999984741210938 M 36.12821578979492 -1.52587890625e-05 C 39.71943664550781 -2.288818359375e-05 42.63070678710938 2.911247253417969 42.63070678710938 6.502475738525391 L 42.63069534301758 36.12819671630859 C 42.63068389892578 39.71941375732422 39.71941375732422 42.63068389892578 36.12819671630859 42.63069534301758 L 6.502475738525391 42.63070678710938 C 2.911247253417969 42.63070678710938 -2.288818359375e-05 39.71943664550781 -1.52587890625e-05 36.12821578979492 L -3.814697265625e-06 6.502494812011719 C -3.814697265625e-06 2.911266326904297 2.911266326904297 -3.814697265625e-06 6.502494812011719 -3.814697265625e-06 L 36.12821578979492 -1.52587890625e-05 Z"
            stroke="none" fill="#a678d4" />
        </g>
      </g>
      <g transform="matrix(1, 0, 0, 1, -10.32, -4.97)" filter="url(#Path_1)">
        <path id="Path_1-2" data-name="Path 1"
          d="M29.71,38.157a7.039,7.039,0,0,0-2.951-4.839c-2.71-1.781-7.214-1.741-13.023.114C8.825,35,5.222,34.584,3.024,32.2,1.4,30.435.047,26.928,2.812,20.228a38.052,38.052,0,0,1,2.715-5.267C3.24,12.512.742,4.724,0,1.348L5.9,0C6.322,1.928,8.4,8.28,9.378,9.579q.667-.8,1.358-1.552A20.466,20.466,0,0,1,22.353,1.41c5.258-.988,8.473.9,8.473.9S34.787,4.315,36.1,7.841s1.642,5-.321,8.78-8.77,5.841-14.832,5.3a26.522,26.522,0,0,1-10.3-3.024q-.436.744-.827,1.491c-2.451,4.691-2.274,7.019-2.078,7.441.175.072,1.192.388,4.034-.52,7.906-2.525,14.174-2.283,18.629.719a13.054,13.054,0,0,1,4.82,6.071,12.839,12.839,0,0,1,.882,3.533l-6.406.487ZM14.387,13.6a10.551,10.551,0,0,0,4.468,1.52,51.142,51.142,0,0,0,7.595.249s2.7-.226,3.445-1.5a3.393,3.393,0,0,0-.149-4.007c-1.1-1.572-4.11-2.613-7.452-2.222S16.243,11.5,16.243,11.5Z"
          transform="translate(15 25.71) rotate(-25)" opacity="0.78" fill="url(#linear-gradient)" />
      </g>
      <g transform="matrix(1, 0, 0, 1, -10.32, -4.97)" filter="url(#Path_7)">
        <g id="Path_7-2" data-name="Path 7" transform="translate(68.83 52.65) rotate(149)" fill="#98a3ec"
          opacity="0.87">
          <path
            d="M 0.728528618812561 6.626181125640869 C 0.9435127973556519 5.99478006362915 1.274793148040771 5.043859004974365 1.640856623649597 4.072744369506836 C 2.498347520828247 1.797949194908142 2.963563680648804 0.948631763458252 3.181809663772583 0.6337255239486694 C 3.408086061477661 0.9400786161422729 3.906223773956299 1.784106850624084 4.821206569671631 4.073334217071533 C 5.208526611328125 5.042375564575195 5.559149265289307 5.991399765014648 5.787669658660889 6.624335765838623 C 5.147216320037842 6.551301002502441 4.211670875549316 6.468354225158691 3.26612663269043 6.468354225158691 C 2.312610387802124 6.46835994720459 1.369344115257263 6.552704811096191 0.728528618812561 6.626181125640869 Z"
            stroke="none" />
          <path
            d="M 3.197250604629517 1.636857986450195 C 2.941783905029297 2.161549091339111 2.570456743240356 3.014857292175293 2.05445671081543 4.393594264984131 C 1.83437967300415 4.981634140014648 1.628639221191406 5.556915283203125 1.455820083618164 6.051235675811768 C 1.999711990356445 6.004954814910889 2.630729198455811 5.968358039855957 3.26612663269043 5.968354225158691 C 3.889229774475098 5.968354225158691 4.507926940917969 6.003530025482178 5.04456901550293 6.04853630065918 C 4.863031387329102 5.55902099609375 4.647711753845215 4.991392135620117 4.417466640472412 4.410964012145996 C 3.863925695419312 3.015527248382568 3.467884302139282 2.15905237197876 3.197250604629517 1.636857986450195 M 3.171220302581787 2.384185791015625e-06 C 4.033308029174805 2.384185791015625e-06 6.532256603240967 7.226604461669922 6.532256603240967 7.226604461669922 C 6.532256603240967 7.226604461669922 4.899186611175537 6.968354225158691 3.26612663269043 6.968354225158691 C 1.633066654205322 6.968364238739014 -3.337860107421875e-06 7.226613998413086 -3.337860107421875e-06 7.226613998413086 C -3.337860107421875e-06 7.226613998413086 2.308586597442627 0.1495842933654785 3.145856618881226 0.002184391021728516 C 3.154135227203369 0.0007266998291015625 3.162611246109009 2.384185791015625e-06 3.171220302581787 2.384185791015625e-06 Z"
            stroke="none" fill="#98a3ec" />
        </g>
      </g>
      <g transform="matrix(1, 0, 0, 1, -10.32, -4.97)" filter="url(#Path_8)">
        <g id="Path_8-2" data-name="Path 8" transform="matrix(-0.83, 0.56, -0.56, -0.83, 19.46, 21.41)" fill="#98a3ec"
          opacity="0.87">
          <path
            d="M 3.222685575485229 6.503617763519287 C 3.000648736953735 6.191901206970215 2.528359651565552 5.375699520111084 1.669622182846069 3.270449161529541 C 1.287807464599609 2.334397554397583 0.941490650177002 1.418089032173157 0.7204246520996094 0.8204959630966187 C 1.369829058647156 0.8334831595420837 2.358522415161133 0.849399209022522 3.303272247314453 0.849399209022522 C 4.156614780426025 0.849399209022522 4.922941207885742 0.7549657821655273 5.47101354598999 0.661885142326355 C 5.275649547576904 1.28421151638031 4.982510089874268 2.193793296813965 4.656502246856689 3.12269926071167 C 3.880811214447021 5.332854270935059 3.434674978256226 6.18240213394165 3.222685575485229 6.503617763519287 Z"
            stroke="none" />
          <path
            d="M 3.201609134674072 5.475372314453125 C 3.440516471862793 4.954005718231201 3.778978824615479 4.123478889465332 4.236582279205322 2.808719158172607 C 4.425868988037109 2.264881610870361 4.602619647979736 1.732421398162842 4.753396034240723 1.266738414764404 C 4.31967830657959 1.314977049827576 3.826759099960327 1.349399209022522 3.303272247314453 1.349399209022522 C 2.665225267410278 1.349399209022522 2.007256984710693 1.342170238494873 1.446467041969299 1.333470344543457 C 1.627171874046326 1.810042142868042 1.844078183174133 2.369840145111084 2.07600212097168 2.942389249801636 C 2.57894492149353 4.183987617492676 2.944944143295288 4.974649906158447 3.201609134674072 5.475372314453125 M 3.227113962173462 7.149724960327148 C 3.218850612640381 7.149719715118408 3.210620403289795 7.149019241333008 3.202612161636353 7.147609233856201 C 2.382582187652588 7.003239154815674 2.150039563275641e-06 0.3041691780090332 2.150039563275641e-06 0.3041691780090332 C 2.150039563275641e-06 0.3041691780090332 1.703812122344971 0.3493991792201996 3.303272247314453 0.3493991792201996 C 4.902732372283936 0.3493991792201996 6.198041915893555 -8.203887773561291e-07 6.198041915893555 -8.203887773561291e-07 C 6.198041915893555 -8.203887773561291e-07 4.065025806427002 7.150253295898438 3.227113962173462 7.149724960327148 Z"
            stroke="none" fill="#98a3ec" />
        </g>
      </g>
    </g>
  </g>
</svg>