<svg xmlns="http://www.w3.org/2000/svg" xmlns:xlink="http://www.w3.org/1999/xlink" width="106.282" height="105.934"
  viewBox="0 0 106.282 105.934">
  <defs>
    <filter id="Path_1273" x="9" y="1.407" width="91.027" height="92.027" filterUnits="userSpaceOnUse">
      <feOffset dy="-1" input="SourceAlpha" />
      <feGaussianBlur result="blur" />
      <feFlood flood-color="#262626" flood-opacity="0.071" />
      <feComposite operator="in" in2="blur" />
    </filter>
    <filter id="Path_1273-2" x="9" y="1.407" width="91.027" height="92.027" filterUnits="userSpaceOnUse">
      <feOffset dy="3" input="SourceAlpha" />
      <feGaussianBlur stdDeviation="3" result="blur-2" />
      <feFlood flood-opacity="0" result="color" />
      <feComposite operator="out" in="SourceGraphic" in2="blur-2" />
      <feComposite operator="in" in="color" />
      <feComposite operator="in" in2="SourceGraphic" />
    </filter>
    <linearGradient id="linear-gradient" x1="0.014" y1="0.826" x2="0.644" y2="0.339" gradientUnits="objectBoundingBox">
      <stop offset="0" stop-color="#fce8fe" />
      <stop offset="1" stop-color="#fff" />
    </linearGradient>
    <filter id="Path_1" x="1.067" y="0" width="105.215" height="105.934" filterUnits="userSpaceOnUse">
      <feOffset dy="5" input="SourceAlpha" />
      <feGaussianBlur stdDeviation="5" result="blur-3" />
      <feFlood flood-color="#fff" flood-opacity="0.071" />
      <feComposite operator="in" in2="blur-3" />
      <feComposite in="SourceGraphic" />
    </filter>
    <filter id="Path_7" x="76.262" y="65.043" width="29.074" height="33.932" filterUnits="userSpaceOnUse">
      <feOffset dx="0.5" dy="12" input="SourceAlpha" />
      <feGaussianBlur stdDeviation="2.5" result="blur-4" />
      <feFlood flood-color="#fff" flood-opacity="0.09" />
      <feComposite operator="in" in2="blur-4" />
      <feComposite in="SourceGraphic" />
    </filter>
    <filter id="Path_8" x="0" y="16.28" width="31.795" height="32.182" filterUnits="userSpaceOnUse">
      <feOffset dy="7" input="SourceAlpha" />
      <feGaussianBlur stdDeviation="3" result="blur-5" />
      <feFlood flood-opacity="0.239" />
      <feComposite operator="in" in2="blur-5" />
      <feComposite in="SourceGraphic" />
    </filter>
  </defs>
  <g id="Group_216" data-name="Group 216" transform="translate(-557.295 -71.593)">
    <g id="Group_214" data-name="Group 214" transform="translate(566.295 74)">
      <g data-type="innerShadowGroup">
        <g transform="matrix(1, 0, 0, 1, -9, -2.41)" filter="url(#Path_1273)">
          <g id="Path_1273-3" data-name="Path 1273" transform="translate(9 47.92) rotate(-45)" fill="#3d0dd0"
            opacity="0.12">
            <path
              d="M 54.54822540283203 58.86602401733398 L 9.817795753479004 58.86602401733398 C 7.436953067779541 58.86602401733398 5.499995708465576 56.9290657043457 5.499995708465576 54.54822540283203 L 5.499995708465576 9.817795753479004 C 5.499995708465576 7.436953067779541 7.436953067779541 5.499995708465576 9.817795753479004 5.499995708465576 L 54.54822540283203 5.499995708465576 C 56.9290657043457 5.499995708465576 58.86602401733398 7.436953067779541 58.86602401733398 9.817795753479004 L 58.86602401733398 54.54822540283203 C 58.86602401733398 56.9290657043457 56.9290657043457 58.86602401733398 54.54822540283203 58.86602401733398 Z"
              stroke="none" />
            <path
              d="M 10.9999885559082 10.9999885559082 L 10.9999885559082 53.36600875854492 L 53.36600875854492 53.36600875854492 L 53.36600875854492 10.9999885559082 L 10.9999885559082 10.9999885559082 M 9.817790985107422 -7.62939453125e-06 L 54.5482292175293 -7.62939453125e-06 C 59.97045135498047 -7.62939453125e-06 64.36601257324219 4.39556884765625 64.36601257324219 9.817790985107422 L 64.36601257324219 54.5482292175293 C 64.36601257324219 59.97045135498047 59.97045135498047 64.36601257324219 54.5482292175293 64.36601257324219 L 9.817790985107422 64.36601257324219 C 4.39556884765625 64.36601257324219 -7.62939453125e-06 59.97045135498047 -7.62939453125e-06 54.5482292175293 L -7.62939453125e-06 9.817790985107422 C -7.62939453125e-06 4.39556884765625 4.39556884765625 -7.62939453125e-06 9.817790985107422 -7.62939453125e-06 Z"
              stroke="none" fill="#a678d4" />
          </g>
        </g>
        <g id="Path_1273-4" data-name="Path 1273" transform="translate(0 45.514) rotate(-45)" fill="#3d0dd0"
          opacity="0.12">
          <path
            d="M 54.54822540283203 58.86602401733398 L 9.817795753479004 58.86602401733398 C 7.436953067779541 58.86602401733398 5.499995708465576 56.9290657043457 5.499995708465576 54.54822540283203 L 5.499995708465576 9.817795753479004 C 5.499995708465576 7.436953067779541 7.436953067779541 5.499995708465576 9.817795753479004 5.499995708465576 L 54.54822540283203 5.499995708465576 C 56.9290657043457 5.499995708465576 58.86602401733398 7.436953067779541 58.86602401733398 9.817795753479004 L 58.86602401733398 54.54822540283203 C 58.86602401733398 56.9290657043457 56.9290657043457 58.86602401733398 54.54822540283203 58.86602401733398 Z"
            stroke="none" />
          <path
            d="M 10.9999885559082 10.9999885559082 L 10.9999885559082 53.36600875854492 L 53.36600875854492 53.36600875854492 L 53.36600875854492 10.9999885559082 L 10.9999885559082 10.9999885559082 M 9.817790985107422 -7.62939453125e-06 L 54.5482292175293 -7.62939453125e-06 C 59.97045135498047 -7.62939453125e-06 64.36601257324219 4.39556884765625 64.36601257324219 9.817790985107422 L 64.36601257324219 54.5482292175293 C 64.36601257324219 59.97045135498047 59.97045135498047 64.36601257324219 54.5482292175293 64.36601257324219 L 9.817790985107422 64.36601257324219 C 4.39556884765625 64.36601257324219 -7.62939453125e-06 59.97045135498047 -7.62939453125e-06 54.5482292175293 L -7.62939453125e-06 9.817790985107422 C -7.62939453125e-06 4.39556884765625 4.39556884765625 -7.62939453125e-06 9.817790985107422 -7.62939453125e-06 Z"
            stroke="none" />
        </g>
        <g transform="matrix(1, 0, 0, 1, -9, -2.41)" filter="url(#Path_1273-2)">
          <g id="Path_1273-5" data-name="Path 1273" transform="translate(9 47.92) rotate(-45)" fill="#fff"
            opacity="0.12">
            <path
              d="M 54.54822540283203 58.86602401733398 L 9.817795753479004 58.86602401733398 C 7.436953067779541 58.86602401733398 5.499995708465576 56.9290657043457 5.499995708465576 54.54822540283203 L 5.499995708465576 9.817795753479004 C 5.499995708465576 7.436953067779541 7.436953067779541 5.499995708465576 9.817795753479004 5.499995708465576 L 54.54822540283203 5.499995708465576 C 56.9290657043457 5.499995708465576 58.86602401733398 7.436953067779541 58.86602401733398 9.817795753479004 L 58.86602401733398 54.54822540283203 C 58.86602401733398 56.9290657043457 56.9290657043457 58.86602401733398 54.54822540283203 58.86602401733398 Z"
              stroke="none" />
            <path
              d="M 10.9999885559082 10.9999885559082 L 10.9999885559082 53.36600875854492 L 53.36600875854492 53.36600875854492 L 53.36600875854492 10.9999885559082 L 10.9999885559082 10.9999885559082 M 9.817790985107422 -7.62939453125e-06 L 54.5482292175293 -7.62939453125e-06 C 59.97045135498047 -7.62939453125e-06 64.36601257324219 4.39556884765625 64.36601257324219 9.817790985107422 L 64.36601257324219 54.5482292175293 C 64.36601257324219 59.97045135498047 59.97045135498047 64.36601257324219 54.5482292175293 64.36601257324219 L 9.817790985107422 64.36601257324219 C 4.39556884765625 64.36601257324219 -7.62939453125e-06 59.97045135498047 -7.62939453125e-06 54.5482292175293 L -7.62939453125e-06 9.817790985107422 C -7.62939453125e-06 4.39556884765625 4.39556884765625 -7.62939453125e-06 9.817790985107422 -7.62939453125e-06 Z"
              stroke="none" />
          </g>
        </g>
        <g id="Path_1273-6" data-name="Path 1273" transform="translate(0 45.514) rotate(-45)" fill="none"
          opacity="0.12">
          <path
            d="M 54.54822540283203 58.86602401733398 L 9.817795753479004 58.86602401733398 C 7.436953067779541 58.86602401733398 5.499995708465576 56.9290657043457 5.499995708465576 54.54822540283203 L 5.499995708465576 9.817795753479004 C 5.499995708465576 7.436953067779541 7.436953067779541 5.499995708465576 9.817795753479004 5.499995708465576 L 54.54822540283203 5.499995708465576 C 56.9290657043457 5.499995708465576 58.86602401733398 7.436953067779541 58.86602401733398 9.817795753479004 L 58.86602401733398 54.54822540283203 C 58.86602401733398 56.9290657043457 56.9290657043457 58.86602401733398 54.54822540283203 58.86602401733398 Z"
            stroke="none" />
          <path
            d="M 10.9999885559082 10.9999885559082 L 10.9999885559082 53.36600875854492 L 53.36600875854492 53.36600875854492 L 53.36600875854492 10.9999885559082 L 10.9999885559082 10.9999885559082 M 9.817790985107422 -7.62939453125e-06 L 54.5482292175293 -7.62939453125e-06 C 59.97045135498047 -7.62939453125e-06 64.36601257324219 4.39556884765625 64.36601257324219 9.817790985107422 L 64.36601257324219 54.5482292175293 C 64.36601257324219 59.97045135498047 59.97045135498047 64.36601257324219 54.5482292175293 64.36601257324219 L 9.817790985107422 64.36601257324219 C 4.39556884765625 64.36601257324219 -7.62939453125e-06 59.97045135498047 -7.62939453125e-06 54.5482292175293 L -7.62939453125e-06 9.817790985107422 C -7.62939453125e-06 4.39556884765625 4.39556884765625 -7.62939453125e-06 9.817790985107422 -7.62939453125e-06 Z"
            stroke="none" fill="#a678d4" />
        </g>
      </g>
      <g transform="matrix(1, 0, 0, 1, -9, -2.41)" filter="url(#Path_1)">
        <path id="Path_1-2" data-name="Path 1"
          d="M44.858,57.611A10.627,10.627,0,0,0,40.4,50.3c-4.092-2.688-10.891-2.629-19.663.172-7.413,2.367-12.854,1.74-16.173-1.863-2.45-2.661-4.495-7.956-.32-18.072a57.453,57.453,0,0,1,4.1-7.953C4.893,18.892,1.121,7.133,0,2.036L8.905,0c.64,2.911,3.784,12.5,5.254,14.463q1.007-1.211,2.051-2.343A30.9,30.9,0,0,1,33.75,2.129C41.688.637,46.543,3.487,46.543,3.487s5.98,3.027,7.969,8.351,2.479,7.55-.484,13.257S40.786,33.915,31.633,33.1a40.044,40.044,0,0,1-15.551-4.566q-.658,1.123-1.248,2.251c-3.7,7.082-3.433,10.6-3.137,11.234.263.109,1.8.586,6.091-.784,11.937-3.812,21.4-3.446,28.128,1.086a19.71,19.71,0,0,1,7.278,9.166,19.386,19.386,0,0,1,1.332,5.335l-9.672.735ZM21.722,20.537a15.931,15.931,0,0,0,6.746,2.3,77.218,77.218,0,0,0,11.467.376s4.075-.341,5.2-2.259a5.122,5.122,0,0,0-.225-6.05c-1.66-2.373-6.205-3.945-11.251-3.356s-9.137,5.818-9.137,5.818Z"
          transform="translate(16.07 33.72) rotate(-25)" opacity="0.8" fill="url(#linear-gradient)" />
      </g>
      <g transform="matrix(1, 0, 0, 1, -9, -2.41)" filter="url(#Path_7)">
        <g id="Path_7-2" data-name="Path 7" transform="translate(97.34 74.4) rotate(149)" fill="#e7e8eb" opacity="0.87">
          <path
            d="M 0.728746235370636 10.30574417114258 C 1.047309637069702 9.361059188842773 1.632048010826111 7.662432670593262 2.284771203994751 5.937911510467529 C 3.838193655014038 1.833705902099609 4.548816680908203 0.809725821018219 4.796792984008789 0.5554420948028564 C 4.942147254943848 0.6954038739204407 5.271525859832764 1.102295875549316 5.852811336517334 2.259701490402222 C 6.313981056213379 3.177961587905884 6.855821132659912 4.410741329193115 7.463281154632568 5.923821449279785 C 8.15617561340332 7.649716854095459 8.777911186218262 9.352892875671387 9.117887496948242 10.30372905731201 C 8.179413795471191 10.18656063079834 6.565341472625732 10.02118110656738 4.931371212005615 10.02118110656738 C 3.288022994995117 10.02118110656738 1.664784789085388 10.18846607208252 0.728746235370636 10.30574417114258 Z"
            stroke="none" />
          <path
            d="M 4.813119411468506 1.407896995544434 C 4.442506313323975 2.041173934936523 3.76957893371582 3.408089160919189 2.674561023712158 6.321251392364502 C 2.202115535736084 7.578153610229492 1.770047187805176 8.806507110595703 1.456658363342285 9.718903541564941 C 2.404283046722412 9.619451522827148 3.661874771118164 9.521181106567383 4.931371212005615 9.521181106567383 C 6.18658447265625 9.521181106567383 7.430228233337402 9.617259979248047 8.374051094055176 9.715555191040039 C 8.041974067687988 8.803888320922852 7.586148262023926 7.582004547119141 7.087701320648193 6.331191539764404 C 5.9169602394104 3.393311500549316 5.202994346618652 2.03150463104248 4.813119411468506 1.407896995544434 M 4.788064002990723 -1.9073486328125e-06 C 6.089699268341064 -1.9073486328125e-06 9.862741470336914 10.91110134124756 9.862741470336914 10.91110134124756 C 9.862741470336914 10.91110134124756 7.397050857543945 10.52118110656738 4.931371212005615 10.52118110656738 C 2.465681076049805 10.52118110656738 9.5367431640625e-07 10.91110134124756 9.5367431640625e-07 10.91110134124756 C 9.5367431640625e-07 10.91110134124756 3.485620975494385 0.2258510589599609 4.749771118164062 0.003291130065917969 C 4.762270927429199 0.00109100341796875 4.775065422058105 -1.9073486328125e-06 4.788064002990723 -1.9073486328125e-06 Z"
            stroke="none" fill="#fff" />
        </g>
      </g>
      <g transform="matrix(1, 0, 0, 1, -9, -2.41)" filter="url(#Path_8)">
        <g id="Path_8-2" data-name="Path 8" transform="matrix(-0.83, 0.56, -0.56, -0.83, 22.79, 27.23)" fill="#e7e8eb"
          opacity="0.87">
          <path
            d="M 4.870492458343506 10.23349666595459 C 4.616503715515137 9.979050636291504 3.903947114944458 8.988502502441406 2.331342935562134 5.147953510284424 C 1.653446793556213 3.492418766021729 1.044492602348328 1.863051414489746 0.7193410396575928 0.9761989116668701 C 1.660672664642334 0.9964784979820251 3.366930723190308 1.027533292770386 4.987452983856201 1.027533292770386 C 6.492039203643799 1.027533292770386 7.813374519348145 0.8309009075164795 8.629108428955078 0.6737481355667114 C 8.335775375366211 1.618879318237305 7.814182281494141 3.259717464447021 7.226742744445801 4.92551326751709 C 6.70093297958374 6.416523456573486 6.2266526222229 7.633923530578613 5.817072868347168 8.543883323669434 C 5.311007022857666 9.668216705322266 5.009620189666748 10.08360767364502 4.870492458343506 10.23349666595459 Z"
            stroke="none" />
          <path
            d="M 4.857043266296387 9.359861373901367 C 5.213893890380859 8.71998119354248 5.843057155609131 7.367734909057617 6.830302715301514 4.545453548431396 C 7.246886253356934 3.35454535484314 7.62610387802124 2.190662145614624 7.907423496246338 1.30366051197052 C 7.112380981445312 1.422772407531738 6.097531318664551 1.527533292770386 4.987452983856201 1.527533292770386 C 3.724227666854858 1.527533292770386 2.409017562866211 1.508713245391846 1.442726254463196 1.490784287452698 C 1.766188025474548 2.358127117156982 2.217929601669312 3.542595624923706 2.711792945861816 4.756903171539307 C 3.804383516311646 7.443362712860107 4.478590488433838 8.740567207336426 4.857043266296387 9.359861373901367 M 4.872475624084473 10.79502773284912 C 4.859999179840088 10.79502010345459 4.847573757171631 10.79396152496338 4.835483074188232 10.79183292388916 C 3.597342729568481 10.57385349273682 2.843322818080196e-06 0.4592533111572266 2.843322818080196e-06 0.4592533111572266 C 2.843322818080196e-06 0.4592533111572266 2.572502851486206 0.5275332927703857 4.987452983856201 0.5275332927703857 C 7.400953769683838 0.5275231003761292 9.358122825622559 3.316497895866632e-06 9.358122825622559 3.316497895866632e-06 C 9.358122825622559 3.316497895866632e-06 6.137588977813721 10.79581832885742 4.872475624084473 10.79502773284912 Z"
            stroke="none" fill="#fff" />
        </g>
      </g>
    </g>
  </g>
</svg>