<svg xmlns="http://www.w3.org/2000/svg" width="497.533" height="638.815" viewBox="0 0 497.533 638.815">
  <g id="Group_267" data-name="Group 267" transform="translate(1.829 39.543)">
    <g id="Group_265" data-name="Group 265" transform="translate(317.266 -37.521) rotate(76)">
      <path id="Path_1507" data-name="Path 1507" d="M0,325.216C384.191,349.773,311.523,111.532,572.423,0"
        transform="translate(0 0)" fill="none" stroke="#fff" stroke-linecap="square" stroke-width="3"
        stroke-dasharray="32.5 32" />
    </g>
    <path id="Polygon_4" data-name="Polygon 4"
      d="M15.7,7.521a5,5,0,0,1,8.665,0L35.738,27.27a5,5,0,0,1-4.332,7.5H8.651a5,5,0,0,1-4.332-7.5Z"
      transform="translate(495.704 530.454) rotate(135)" fill="#fff" />
    <g id="Ellipse_2645" data-name="Ellipse 2645" transform="translate(192.373 311.48)" fill="#0f235e" stroke="#fff"
      stroke-width="7">
      <ellipse cx="35.5" cy="35.5" rx="35.5" ry="35.5" stroke="none" />
      <ellipse cx="35.5" cy="35.5" rx="32" ry="32" fill="none" />
    </g>
    <path id="Union_24" data-name="Union 24"
      d="M-20260.568-12279.217v-4.316l6.041-6.2c1.148-1.17,2.135-2.207,2.959-3.1a13.167,13.167,0,0,0,1.9-2.543,5.205,5.205,0,0,0,.66-2.558,2.935,2.935,0,0,0-1.117-2.7,7.044,7.044,0,0,0-3.605-.7,21.972,21.972,0,0,0-2.2.122c-.8.076-1.566.173-2.3.279s-1.363.214-1.9.32l-.281-4.24c.586-.163,1.313-.336,2.178-.523s1.814-.352,2.842-.5a21.223,21.223,0,0,1,3.02-.219q4.318,0,6.6,1.82t2.277,5.619a10.779,10.779,0,0,1-.58,3.682,10.307,10.307,0,0,1-1.795,3.061,28.6,28.6,0,0,1-3.223,3.178l-5.279,5.039h11.238v4.479Z"
      transform="translate(20479.801 12640.694)" fill="#fff" stroke="rgba(0,0,0,0)" stroke-miterlimit="10"
      stroke-width="1" />
  </g>
</svg>