<svg xmlns="http://www.w3.org/2000/svg" width="497.533" height="638.815" viewBox="0 0 497.533 638.815">
  <g id="Group_305" data-name="Group 305" transform="translate(0 2.021)">
    <g id="Group_265" data-name="Group 265" transform="translate(495.703 79.103) rotate(104)">
      <path id="Path_1507" data-name="Path 1507" d="M0,1.763C384.191-22.794,311.523,215.447,572.423,326.978"
        transform="translate(0 0)" fill="none" stroke="#fff" stroke-linecap="square" stroke-width="3"
        stroke-dasharray="32.5 32" />
    </g>
    <path id="Polygon_4" data-name="Polygon 4"
      d="M15.7,7.521a5,5,0,0,1,8.665,0L35.738,27.27a5,5,0,0,1-4.332,7.5H8.651a5,5,0,0,1-4.332-7.5Z"
      transform="translate(28.324 596.3) rotate(-135)" fill="#fff" />
    <g id="Ellipse_2645" data-name="Ellipse 2645" transform="translate(232.33 349.001)" fill="#0f235e" stroke="#fff"
      stroke-width="7">
      <ellipse cx="35.5" cy="35.5" rx="35.5" ry="35.5" stroke="none" />
      <ellipse cx="35.5" cy="35.5" rx="32" ry="32" fill="none" />
    </g>
    <path id="Union_25" data-name="Union 25"
      d="M-20298.307-13208.191c-1.111-.106-2.16-.249-3.16-.428s-1.824-.336-2.48-.474l.25-4.388c.652.082,1.441.179,2.354.291s1.859.2,2.828.265,1.865.1,2.686.1a5.77,5.77,0,0,0,3.484-.861,3.26,3.26,0,0,0,1.152-2.787,3.654,3.654,0,0,0-.514-2.068,3.022,3.022,0,0,0-1.479-1.132,6.849,6.849,0,0,0-2.232-.407h-5.574v-4.51h5.453a4.278,4.278,0,0,0,1.824-.413,3.533,3.533,0,0,0,1.432-1.187,3.157,3.157,0,0,0,.555-1.886,2.743,2.743,0,0,0-1.045-2.44,6.12,6.12,0,0,0-3.383-.719q-1.23,0-2.584.127c-.9.082-1.764.169-2.584.266s-1.5.2-2.047.306l-.246-4.306c.6-.163,1.336-.332,2.213-.51s1.8-.331,2.787-.454a22.7,22.7,0,0,1,2.787-.183,18.253,18.253,0,0,1,5.641.718,5.567,5.567,0,0,1,3.135,2.339,8.071,8.071,0,0,1,.982,4.24,7.259,7.259,0,0,1-.346,2.42,5.669,5.669,0,0,1-.9,1.682,6.162,6.162,0,0,1-1.127,1.126c-.381.285-.738.54-1.064.76a11.252,11.252,0,0,1,2.131,1.269,4.559,4.559,0,0,1,1.391,1.845,7.931,7.931,0,0,1,.494,3.077,9.96,9.96,0,0,1-1.064,4.938,6.158,6.158,0,0,1-3.2,2.711,14.753,14.753,0,0,1-5.371.841A31.484,31.484,0,0,1-20298.307-13208.191Z"
      transform="translate(20562 13605)" fill="#fff" />
  </g>
</svg>