<svg xmlns="http://www.w3.org/2000/svg" xmlns:xlink="http://www.w3.org/1999/xlink" width="197.776" height="183.776" viewBox="0 0 197.776 183.776">
  <defs>
    <filter id="Rectangle_1" x="0" y="0" width="102.775" height="102.775" filterUnits="userSpaceOnUse">
      <feOffset dx="-7" dy="3" input="SourceAlpha"/>
      <feGaussianBlur stdDeviation="4.5" result="blur"/>
      <feFlood flood-opacity="0.161"/>
      <feComposite operator="in" in2="blur"/>
      <feComposite in="SourceGraphic"/>
    </filter>
    <filter id="Rectangle_3" x="95.872" y="0" width="101.904" height="102.775" filterUnits="userSpaceOnUse">
      <feOffset dx="7" dy="3" input="SourceAlpha"/>
      <feGaussianBlur stdDeviation="4.5" result="blur-2"/>
      <feFlood flood-opacity="0.161"/>
      <feComposite operator="in" in2="blur-2"/>
      <feComposite in="SourceGraphic"/>
    </filter>
    <filter id="Rectangle_4" x="95.872" y="82.743" width="101.904" height="101.033" filterUnits="userSpaceOnUse">
      <feOffset dx="7" dy="3" input="SourceAlpha"/>
      <feGaussianBlur stdDeviation="4.5" result="blur-3"/>
      <feFlood flood-opacity="0.161"/>
      <feComposite operator="in" in2="blur-3"/>
      <feComposite in="SourceGraphic"/>
    </filter>
    <filter id="Rectangle_2" x="0" y="82.743" width="102.775" height="101.033" filterUnits="userSpaceOnUse">
      <feOffset dx="-7" dy="3" input="SourceAlpha"/>
      <feGaussianBlur stdDeviation="4.5" result="blur-4"/>
      <feFlood flood-opacity="0.161"/>
      <feComposite operator="in" in2="blur-4"/>
      <feComposite in="SourceGraphic"/>
    </filter>
  </defs>
  <g id="Group_26" data-name="Group 26" transform="translate(20.225 10.5)">
    <g transform="matrix(1, 0, 0, 1, -20.23, -10.5)" filter="url(#Rectangle_1)">
      <path id="Rectangle_1-2" data-name="Rectangle 1" d="M10,0H75.775a0,0,0,0,1,0,0V75.775a0,0,0,0,1,0,0H0a0,0,0,0,1,0,0V10A10,10,0,0,1,10,0Z" transform="translate(20.5 10.5)" fill="#e8e807"/>
    </g>
    <g transform="matrix(1, 0, 0, 1, -20.23, -10.5)" filter="url(#Rectangle_3)">
      <path id="Rectangle_3-2" data-name="Rectangle 3" d="M0,0H64.9a10,10,0,0,1,10,10V75.775a0,0,0,0,1,0,0H0a0,0,0,0,1,0,0V0A0,0,0,0,1,0,0Z" transform="translate(102.37 10.5)" fill="#11f820"/>
    </g>
    <g transform="matrix(1, 0, 0, 1, -20.23, -10.5)" filter="url(#Rectangle_4)">
      <path id="Rectangle_4-2" data-name="Rectangle 4" d="M0,0H74.9a0,0,0,0,1,0,0V64.033a10,10,0,0,1-10,10H0a0,0,0,0,1,0,0V0A0,0,0,0,1,0,0Z" transform="translate(102.37 93.24)" fill="#ffbe66"/>
    </g>
    <g transform="matrix(1, 0, 0, 1, -20.23, -10.5)" filter="url(#Rectangle_2)">
      <path id="Rectangle_2-2" data-name="Rectangle 2" d="M0,0H75.775a0,0,0,0,1,0,0V74.033a0,0,0,0,1,0,0H10a10,10,0,0,1-10-10V0A0,0,0,0,1,0,0Z" transform="translate(20.5 93.24)" fill="#56ffe8"/>
    </g>
    <path id="Path_1270" data-name="Path 1270" d="M18.7,13.888c9.128,0,15.848-5.1,15.848-13.1V-39.648h-6.1V.784C28.448,5.432,24.92,8.4,18.7,8.4,12.432,8.4,8.344,5.04,8.344.448a140.239,140.239,0,0,1,2.016-15.68l-6.048-.9C3.36-10.248,2.24-2.576,2.24.448,2.24,8.288,9.3,13.888,18.7,13.888Z" transform="translate(14.565 52.742)" fill="#fff"/>
    <path id="Path_1269" data-name="Path 1269" d="M35.112-39.648v34.16H18.872c-8.232,0-10.528-1.792-10.528-6.384a50.4,50.4,0,0,1,1.344-8.96L3.7-21.952A56.368,56.368,0,0,0,2.24-11.928C2.24-3.752,7.728,0,18.872,0H41.216V-39.648ZM28.28-20.216h-7.5a3.6,3.6,0,0,1-.28-1.344,2.825,2.825,0,0,1,2.912-2.912,3.474,3.474,0,0,1,1.792.5l2.184-3.3a8.4,8.4,0,0,0-3.976-1.064A6.927,6.927,0,0,0,16.24-21.56a10.875,10.875,0,0,0,.112,1.344h-1.12v3.864H28.28Z" transform="translate(97.179 54.742)" fill="#fff"/>
    <path id="Path_1272" data-name="Path 1272" d="M17.864-28a32.124,32.124,0,0,0-10.3,1.512A58.143,58.143,0,0,0,5.936-13.16a55.421,55.421,0,0,0,.9,10.024C3.92-.952,2.24,2.8,2.24,7.672a70.1,70.1,0,0,0,1.4,10.976L9.632,17.7A61.424,61.424,0,0,1,8.344,7.672C8.344.784,12.208,0,14.56,0H32.592V-13.72C32.592-24.192,27.664-28,17.864-28ZM14.56-5.488c-.672,0-1.288.056-1.9.112a53.537,53.537,0,0,1-.616-7.784,58.581,58.581,0,0,1,.784-8.96,35.4,35.4,0,0,1,5.04-.392c6.832,0,8.624,1.848,8.624,8.792v8.232Z" transform="translate(105.179 128.742)" fill="#fff"/>
    <path id="Path_1271" data-name="Path 1271" d="M14.905-37.9h-6v6.38h6Zm9.4,0h-6v6.38h6ZM16.665-27.5C7.04-27.5,2.2-23.76,2.2-13.2V0H31.075V-13.2C31.075-23.76,26.235-27.5,16.665-27.5Zm0,5.39c6.655,0,8.415,1.815,8.415,8.91v7.81H8.2V-13.2C8.2-20.3,9.955-22.11,16.665-22.11Z" transform="translate(20.565 135.614)" fill="#fff"/>
  </g>
</svg>