<svg xmlns="http://www.w3.org/2000/svg" xmlns:xlink="http://www.w3.org/1999/xlink" width="889" height="196.767"
  viewBox="0 0 889 196.767">
  <defs>
    <clipPath id="clip-path">
      <path id="Path_1480" data-name="Path 1480"
        d="M22,0H867c12.15,0,22,7,22,15.628V181.139c0,8.631-9.85,15.628-22,15.628H22c-12.15,0-22-7-22-15.628V15.628C0,7,9.85,0,22,0Z"
        transform="translate(697 220.233)" fill="#fff" />
    </clipPath>
    <linearGradient id="linear-gradient" x1="0.5" x2="0.5" y2="1" gradientUnits="objectBoundingBox">
      <stop offset="0" stop-color="#42b874" />
      <stop offset="1" stop-color="#76df53" />
    </linearGradient>
  </defs>
  <g id="Mask_Group_3" data-name="Mask Group 3" transform="translate(-697 -220.233)" clip-path="url(#clip-path)">
    <g id="Group_223" data-name="Group 223" transform="translate(-29.167 139.665)">
      <path id="Path_1476" data-name="Path 1476" d="M-500,604.072" transform="translate(500 22.013)" fill="#4abe6f"
        opacity="0.05" />
      <path id="Path_1477" data-name="Path 1477"
        d="M-114.973-.275C-88.78,1.847-40,12.174,10.75,9.911s68.755-20.06,117.865-21.05,68.755,17.429,117.865,16.3,68.755-24.842,117.865-21.729S433.1,21.228,482.212,20.1,550.967-22.712,600.078-22s68.755,44.93,117.865,45.5S786.7-16.883,835.809-19.288,904.564,9.684,953.674,11.948s68.755-23.342,117.865-20.371,68.755,33.5,117.865,34.631,68.755-29.623,117.865-29.2,68.755,31.8,117.865,31.236S1493.891-5.283,1543-5.707s68.755,29.793,117.865,31.915,52.387-71.384,117.865-21.729,671.181,135.158,196.443,260.073S15.661,533.338-500,604.072"
        transform="translate(500 105.732)" fill="#6bc782" opacity="0.37" />
      <path id="Path_1478" data-name="Path 1478"
        d="M-114.973-.275C-88.78,1.847-40,12.174,10.75,9.911s68.755-20.06,117.865-21.05,68.755,17.429,117.865,16.3,68.755-24.842,117.865-21.729S433.1,21.228,482.212,20.1,550.967-22.712,600.078-22s68.755,44.93,117.865,45.5S786.7-16.883,835.809-19.288,904.564,9.684,953.674,11.948s68.755-23.342,117.865-20.371,68.755,33.5,117.865,34.631,68.755-29.623,117.865-29.2,68.755,31.8,117.865,31.236S1493.891-5.283,1543-5.707s68.755,29.793,117.865,31.915,52.387-71.384,117.865-21.729,671.181,135.158,196.443,260.073S15.661,533.338-500,604.072"
        transform="translate(500 152.45)" fill="#48bc70" opacity="0.68" />
      <path id="Path_1479" data-name="Path 1479"
        d="M-114.973-.275C-88.78,1.847-40,12.174,10.75,9.911s68.755-20.06,117.865-21.05,68.755,17.429,117.865,16.3,68.755-24.842,117.865-21.729S433.1,21.228,482.212,20.1,550.967-22.712,600.078-22s68.755,44.93,117.865,45.5S786.7-16.883,835.809-19.288,904.564,9.684,953.674,11.948s68.755-23.342,117.865-20.371,68.755,33.5,117.865,34.631,68.755-29.623,117.865-29.2,68.755,31.8,117.865,31.236S1493.891-5.283,1543-5.707s68.755,29.793,117.865,31.915,52.387-71.384,117.865-21.729,671.181,135.158,196.443,260.073S15.661,533.338-500,604.072"
        transform="translate(500 195.169)" fill="url(#linear-gradient)" />
    </g>
  </g>
</svg>