<svg xmlns="http://www.w3.org/2000/svg" width="55.281" height="63.088" viewBox="0 0 55.281 63.088">
  <path id="Icon_open-timer" data-name="Icon open-timer"
    d="M15.772,0V7.886h7.886v.237A27.623,27.623,0,1,0,55.2,35.487a26.786,26.786,0,0,0-1.971-9.857l-7.176,3a18.974,18.974,0,0,1,1.262,6.94A19.715,19.715,0,1,1,27.6,15.851a19.276,19.276,0,0,1,6.94,1.262L37.222,9.7a33.02,33.02,0,0,0-5.678-1.262V7.965H39.43V.079H15.772ZM55.2,9.148S26.418,31.307,24.92,32.806a3.855,3.855,0,0,0,0,5.441,3.72,3.72,0,0,0,5.441,0c1.577-1.577,24.92-29.1,24.92-29.1Z"
    fill="#1a8b90" />
</svg>